<svg width="90" height="96" viewBox="0 0 90 96" fill="none" xmlns="http://www.w3.org/2000/svg">
<path d="M43.2111 34.5214L42.5403 35.8631H42.5403L43.2111 34.5214ZM46.7889 34.5214L46.118 33.1798H46.118L46.7889 34.5214ZM47.2278 34.302L47.8986 35.6436L47.2278 34.302ZM48.3739 32.514L46.8771 32.4156L48.3739 32.514ZM48.164 33.6856L46.9146 32.8556L48.164 33.6856ZM41.6261 32.514L40.1293 32.6124L41.6261 32.514ZM42.7722 34.302L42.1014 35.6436L42.7722 34.302ZM41.836 33.6856L40.5866 34.5157L41.836 33.6856ZM39.3307 25.3213L38.4793 26.5563L39.3307 25.3213ZM40.0832 26.1914L41.457 25.5892L40.0832 26.1914ZM39.832 25.7132L40.9887 24.7582L39.832 25.7132ZM50.6693 25.3213L49.8179 24.0864L50.6693 25.3213ZM49.9168 26.1914L51.2907 26.7935L49.9168 26.1914ZM50.168 25.7132L49.0113 24.7582L50.168 25.7132ZM53.5 17.0825C53.5 19.9864 52.0452 22.5508 49.8179 24.0864L51.5207 26.5563C54.5254 24.4847 56.5 21.0144 56.5 17.0825H53.5ZM45 8.58252C49.6944 8.58252 53.5 12.3881 53.5 17.0825H56.5C56.5 10.7312 51.3513 5.58252 45 5.58252V8.58252ZM36.5 17.0825C36.5 12.3881 40.3056 8.58252 45 8.58252V5.58252C38.6487 5.58252 33.5 10.7312 33.5 17.0825H36.5ZM40.1821 24.0864C37.9548 22.5508 36.5 19.9864 36.5 17.0825H33.5C33.5 21.0144 35.4746 24.4847 38.4793 26.5563L40.1821 24.0864ZM43.1229 32.4156C42.9679 30.0587 42.4035 27.7488 41.457 25.5892L38.7093 26.7935C39.5161 28.6343 39.9973 30.6033 40.1293 32.6124L43.1229 32.4156ZM43.882 33.1798L43.4431 32.9603L42.1014 35.6436L42.5403 35.8631L43.882 33.1798ZM46.118 33.1798C45.4142 33.5317 44.5858 33.5317 43.882 33.1798L42.5403 35.8631C44.0887 36.6373 45.9113 36.6373 47.4597 35.8631L46.118 33.1798ZM46.5569 32.9603L46.118 33.1798L47.4597 35.8631L47.8986 35.6436L46.5569 32.9603ZM48.543 25.5892C47.5965 27.7488 47.0321 30.0587 46.8771 32.4156L49.8707 32.6124C50.0027 30.6033 50.4839 28.6343 51.2907 26.7935L48.543 25.5892ZM47.8986 35.6436C48.1362 35.5248 48.4078 35.3907 48.6315 35.2512C48.8782 35.0974 49.1761 34.873 49.4134 34.5157L46.9146 32.8556C47.0045 32.7202 47.0972 32.6725 47.0441 32.7056C47.0154 32.7235 46.9663 32.7516 46.8801 32.7967C46.7937 32.8419 46.6919 32.8928 46.5569 32.9603L47.8986 35.6436ZM46.8771 32.4156C46.8665 32.5776 46.8582 32.7023 46.8494 32.8093C46.8405 32.9164 46.8329 32.9822 46.8263 33.0243C46.8127 33.1124 46.8165 33.0032 46.9146 32.8556L49.4134 34.5157C49.6589 34.1462 49.7469 33.7677 49.7909 33.4838C49.8323 33.217 49.8516 32.9019 49.8707 32.6124L46.8771 32.4156ZM40.1293 32.6124C40.1484 32.9019 40.1677 33.217 40.2091 33.4838C40.2531 33.7677 40.3411 34.1462 40.5866 34.5157L43.0854 32.8556C43.1835 33.0032 43.1873 33.1124 43.1737 33.0243C43.1671 32.9822 43.1595 32.9164 43.1506 32.8093C43.1418 32.7023 43.1335 32.5776 43.1229 32.4156L40.1293 32.6124ZM43.4431 32.9603C43.308 32.8928 43.2063 32.8419 43.1199 32.7967C43.0337 32.7516 42.9846 32.7235 42.9559 32.7056C42.9028 32.6725 42.9955 32.7202 43.0854 32.8556L40.5866 34.5157C40.8239 34.873 41.1218 35.0974 41.3685 35.2512C41.5922 35.3907 41.8638 35.5248 42.1014 35.6436L43.4431 32.9603ZM38.4793 26.5563C38.5497 26.6048 38.6037 26.642 38.6498 26.6745C38.6959 26.7069 38.7241 26.7274 38.7421 26.7412C38.781 26.7708 38.7356 26.7413 38.6752 26.6682L40.9887 24.7582C40.7329 24.4484 40.3709 24.2165 40.1821 24.0864L38.4793 26.5563ZM41.457 25.5892C41.3789 25.4111 41.2401 25.0628 40.9887 24.7582L38.6752 26.6682C38.6539 26.6424 38.6367 26.6179 38.6242 26.598C38.6128 26.5798 38.6086 26.5708 38.6126 26.5788C38.6172 26.5878 38.6265 26.6069 38.6438 26.6452C38.6613 26.6839 38.6813 26.7295 38.7093 26.7935L41.457 25.5892ZM49.8179 24.0864C49.6291 24.2165 49.2671 24.4484 49.0113 24.7582L51.3248 26.6682C51.2644 26.7413 51.219 26.7708 51.2579 26.7412C51.2759 26.7274 51.3041 26.7069 51.3502 26.6745C51.3963 26.642 51.4503 26.6048 51.5207 26.5563L49.8179 24.0864ZM51.2907 26.7935C51.3187 26.7295 51.3387 26.6839 51.3562 26.6452C51.3735 26.6069 51.3828 26.5878 51.3874 26.5788C51.3914 26.5708 51.3872 26.5798 51.3758 26.598C51.3633 26.6179 51.3461 26.6424 51.3248 26.6682L49.0113 24.7582C48.7599 25.0628 48.6211 25.4111 48.543 25.5892L51.2907 26.7935Z" fill="#222222"/>
<path d="M49.9874 27.0825V27.0825C46.9689 29.1001 43.0321 29.1001 40.0137 27.0825V27.0825" stroke="#222222" stroke-width="3"/>
<path d="M11.782 60.4158V46.4158H17.482C21.962 46.4158 24.982 49.2958 24.982 53.4158C24.982 57.5358 21.962 60.4158 17.482 60.4158H11.782ZM13.262 59.1358H17.402C21.122 59.1358 23.522 56.7758 23.522 53.4158C23.522 50.0558 21.122 47.6958 17.402 47.6958H13.262V59.1358ZM37.1854 55.1558C37.1854 55.2758 37.1654 55.4358 37.1654 55.5958H28.3654C28.5254 57.7958 30.2054 59.2558 32.5054 59.2558C33.7854 59.2558 34.9254 58.7958 35.7254 57.8758L36.5254 58.7958C35.5854 59.9158 34.1254 60.5158 32.4654 60.5158C29.1854 60.5158 26.9454 58.2758 26.9454 55.1558C26.9454 52.0358 29.1254 49.8158 32.0854 49.8158C35.0454 49.8158 37.1854 51.9958 37.1854 55.1558ZM32.0854 51.0358C30.0454 51.0358 28.5454 52.4758 28.3654 54.5358H35.8254C35.6454 52.4758 34.1454 51.0358 32.0854 51.0358ZM42.8957 60.5158C41.1557 60.5158 39.4757 59.9558 38.6157 59.2158L39.2557 58.0958C40.0957 58.7558 41.5157 59.2758 42.9957 59.2758C44.9957 59.2758 45.8157 58.5958 45.8157 57.5558C45.8157 54.8158 38.9957 56.9758 38.9957 52.8158C38.9957 51.0958 40.4757 49.8158 43.1557 49.8158C44.5157 49.8158 45.9957 50.1958 46.8757 50.7958L46.2557 51.9358C45.3357 51.2958 44.2357 51.0358 43.1557 51.0358C41.2557 51.0358 40.4157 51.7758 40.4157 52.7758C40.4157 55.6158 47.2357 53.4758 47.2357 57.5158C47.2357 59.3358 45.6357 60.5158 42.8957 60.5158ZM50.5809 47.5958C50.0009 47.5958 49.5409 47.1358 49.5409 46.5758C49.5409 46.0358 50.0009 45.5758 50.5809 45.5758C51.1609 45.5758 51.6209 46.0158 51.6209 46.5558C51.6209 47.1358 51.1809 47.5958 50.5809 47.5958ZM49.8609 60.4158V49.8958H51.2809V60.4158H49.8609ZM63.612 49.8958H64.972V59.1358C64.972 62.7558 63.192 64.3958 59.712 64.3958C57.792 64.3958 55.912 63.8158 54.812 62.7758L55.532 61.6958C56.532 62.5958 58.052 63.1358 59.672 63.1358C62.332 63.1358 63.552 61.9158 63.552 59.3158V57.9758C62.672 59.3158 61.172 60.0158 59.452 60.0158C56.452 60.0158 54.172 57.9158 54.172 54.8958C54.172 51.8758 56.452 49.8158 59.452 49.8158C61.212 49.8158 62.732 50.5358 63.612 51.9158V49.8958ZM59.592 58.7558C61.912 58.7558 63.592 57.1758 63.592 54.8958C63.592 52.6158 61.912 51.0558 59.592 51.0558C57.272 51.0558 55.612 52.6158 55.612 54.8958C55.612 57.1758 57.272 58.7558 59.592 58.7558ZM74.3029 49.8158C76.8629 49.8158 78.6229 51.2958 78.6229 54.3158V60.4158H77.2029V54.4558C77.2029 52.2358 76.0429 51.0958 74.0429 51.0958C71.7829 51.0958 70.3629 52.4958 70.3629 54.8958V60.4158H68.9429V49.8958H70.3029V51.8358C71.0629 50.5558 72.4829 49.8158 74.3029 49.8158ZM5.78125 91.4158V78.6958H0.86125V77.4158H12.1813V78.6958H7.26125V91.4158H5.78125ZM19.6056 80.8158C22.1656 80.8158 23.9256 82.2958 23.9256 85.3158V91.4158H22.5056V85.4558C22.5056 83.2358 21.3456 82.0958 19.3456 82.0958C17.0856 82.0958 15.6656 83.4958 15.6656 85.8958V91.4158H14.2456V76.5758H15.6656V82.7358C16.4456 81.5158 17.8256 80.8158 19.6056 80.8158ZM28.5008 78.5958C27.9208 78.5958 27.4608 78.1358 27.4608 77.5758C27.4608 77.0358 27.9208 76.5758 28.5008 76.5758C29.0808 76.5758 29.5408 77.0158 29.5408 77.5558C29.5408 78.1358 29.1008 78.5958 28.5008 78.5958ZM27.7808 91.4158V80.8958H29.2008V91.4158H27.7808ZM38.5119 80.8158C41.0719 80.8158 42.8319 82.2958 42.8319 85.3158V91.4158H41.4119V85.4558C41.4119 83.2358 40.2519 82.0958 38.2519 82.0958C35.9919 82.0958 34.5719 83.4958 34.5719 85.8958V91.4158H33.1519V80.8958H34.5119V82.8358C35.2719 81.5558 36.6919 80.8158 38.5119 80.8158ZM54.827 91.4158L50.587 86.1358L48.107 88.4158V91.4158H46.687V76.5758H48.107V86.6358L54.387 80.8958H56.147L51.647 85.1958L56.567 91.4158H54.827ZM59.2625 78.5958C58.6825 78.5958 58.2225 78.1358 58.2225 77.5758C58.2225 77.0358 58.6825 76.5758 59.2625 76.5758C59.8425 76.5758 60.3025 77.0158 60.3025 77.5558C60.3025 78.1358 59.8625 78.5958 59.2625 78.5958ZM58.5425 91.4158V80.8958H59.9625V91.4158H58.5425ZM69.2736 80.8158C71.8336 80.8158 73.5936 82.2958 73.5936 85.3158V91.4158H72.1736V85.4558C72.1736 83.2358 71.0136 82.0958 69.0136 82.0958C66.7536 82.0958 65.3336 83.4958 65.3336 85.8958V91.4158H63.9136V80.8958H65.2736V82.8358C66.0336 81.5558 67.4536 80.8158 69.2736 80.8158ZM85.8678 80.8958H87.2278V90.1358C87.2278 93.7558 85.4478 95.3958 81.9678 95.3958C80.0478 95.3958 78.1678 94.8158 77.0678 93.7758L77.7878 92.6958C78.7878 93.5958 80.3078 94.1358 81.9278 94.1358C84.5878 94.1358 85.8078 92.9158 85.8078 90.3158V88.9758C84.9278 90.3158 83.4278 91.0158 81.7078 91.0158C78.7078 91.0158 76.4278 88.9158 76.4278 85.8958C76.4278 82.8758 78.7078 80.8158 81.7078 80.8158C83.4678 80.8158 84.9878 81.5358 85.8678 82.9158V80.8958ZM81.8478 89.7558C84.1678 89.7558 85.8478 88.1758 85.8478 85.8958C85.8478 83.6158 84.1678 82.0558 81.8478 82.0558C79.5278 82.0558 77.8678 83.6158 77.8678 85.8958C77.8678 88.1758 79.5278 89.7558 81.8478 89.7558Z" fill="#222222"/>
</svg>
