<svg width="49" height="94" viewBox="0 0 49 94" fill="none" xmlns="http://www.w3.org/2000/svg">
<circle cx="24.5002" cy="20.4157" r="5.16667" stroke="#222222" stroke-width="3"/>
<path d="M38.707 19.3393C39.0872 19.8283 39.2773 20.0727 39.2773 20.4158C39.2773 20.7588 39.0872 21.0033 38.707 21.4922C36.698 24.0759 31.0962 30.4158 24.5 30.4158C17.9038 30.4158 12.302 24.0759 10.293 21.4922C9.91281 21.0033 9.72272 20.7588 9.72272 20.4158C9.72272 20.0727 9.91281 19.8283 10.293 19.3393C12.302 16.7556 17.9038 10.4158 24.5 10.4158C31.0962 10.4158 36.698 16.7556 38.707 19.3393Z" stroke="#222222" stroke-width="3"/>
<path d="M7.75219 59.1358H16.1722V60.4158H6.27219V46.4158H15.8722V47.6958H7.75219V52.6758H14.9922V53.9358H7.75219V59.1358ZM26.5763 49.8958H27.9763L22.7163 61.6758C21.8363 63.7358 20.7163 64.3958 19.2163 64.3958C18.2363 64.3958 17.2963 64.0758 16.6562 63.4358L17.3163 62.3758C17.8363 62.8958 18.4762 63.1758 19.2363 63.1758C20.1763 63.1758 20.8163 62.7358 21.4163 61.4158L21.8763 60.3958L17.1763 49.8958H18.6563L22.6163 58.8358L26.5763 49.8958ZM38.8631 55.1558C38.8631 55.2758 38.8431 55.4358 38.8431 55.5958H30.0431C30.2031 57.7958 31.8831 59.2558 34.1831 59.2558C35.4631 59.2558 36.6031 58.7958 37.4031 57.8758L38.2031 58.7958C37.2631 59.9158 35.8031 60.5158 34.1431 60.5158C30.8631 60.5158 28.6231 58.2758 28.6231 55.1558C28.6231 52.0358 30.8031 49.8158 33.7631 49.8158C36.7231 49.8158 38.8631 51.9958 38.8631 55.1558ZM33.7631 51.0358C31.7231 51.0358 30.2231 52.4758 30.0431 54.5358H37.5031C37.3231 52.4758 35.8231 51.0358 33.7631 51.0358ZM8.51414 77.4158C12.0741 77.4158 14.2341 79.2158 14.2341 82.2158C14.2341 85.1958 12.0741 86.9958 8.51414 86.9958H4.75414V91.4158H3.27414V77.4158H8.51414ZM8.47414 85.6958C11.2741 85.6958 12.7541 84.4158 12.7541 82.2158C12.7541 79.9758 11.2741 78.6958 8.47414 78.6958H4.75414V85.6958H8.47414ZM17.5809 78.5958C17.0009 78.5958 16.5409 78.1358 16.5409 77.5758C16.5409 77.0358 17.0009 76.5758 17.5809 76.5758C18.1609 76.5758 18.6209 77.0158 18.6209 77.5558C18.6209 78.1358 18.1809 78.5958 17.5809 78.5958ZM16.8609 91.4158V80.8958H18.2809V91.4158H16.8609ZM30.552 91.4158H28.932L25.592 87.0158L22.232 91.4158H20.632L24.792 86.0158L20.832 80.8958H22.432L25.592 85.0158L28.752 80.8958H30.312L26.352 86.0158L30.552 91.4158ZM41.7245 86.1558C41.7245 86.2758 41.7045 86.4358 41.7045 86.5958H32.9045C33.0645 88.7958 34.7445 90.2558 37.0445 90.2558C38.3245 90.2558 39.4645 89.7958 40.2645 88.8758L41.0645 89.7958C40.1245 90.9158 38.6645 91.5158 37.0045 91.5158C33.7245 91.5158 31.4845 89.2758 31.4845 86.1558C31.4845 83.0358 33.6645 80.8158 36.6245 80.8158C39.5845 80.8158 41.7245 82.9958 41.7245 86.1558ZM36.6245 82.0358C34.5845 82.0358 33.0845 83.4758 32.9045 85.5358H40.3645C40.1845 83.4758 38.6845 82.0358 36.6245 82.0358ZM44.6148 91.4158V76.5758H46.0348V91.4158H44.6148Z" fill="#222222"/>
</svg>
