<svg width="97" height="41" viewBox="0 0 97 41" fill="none" xmlns="http://www.w3.org/2000/svg">
<path d="M7.04038 40.0864C10.7187 40.0864 13.7047 37.1004 13.7047 33.4221V26.7578H7.04038C3.36209 26.7578 0.376099 29.7438 0.376099 33.4221C0.376099 37.1004 3.36209 40.0864 7.04038 40.0864Z" fill="#0ACF83"/>
<path d="M0.366333 20.0862C0.366333 16.4079 3.35232 13.4219 7.03061 13.4219H13.6949V26.7574H7.03061C3.35232 26.7574 0.366333 23.7714 0.366333 20.0932V20.0862Z" fill="#A259FF"/>
<path d="M0.366333 6.75022C0.366333 3.07193 3.35232 0.0859375 7.03061 0.0859375H13.6949V13.4215H7.03061C3.35232 13.4215 0.366333 10.4355 0.366333 6.75721V6.75022Z" fill="#F24E1E"/>
<path d="M13.6417 0.0859375H20.306C23.9843 0.0859375 26.9703 3.07193 26.9703 6.75022C26.9703 10.4285 23.9843 13.4145 20.306 13.4145H13.6417V0.0859375Z" fill="#FF7262"/>
<path d="M27.0402 20.0862C27.0402 23.7644 24.0542 26.7504 20.3759 26.7504C16.6976 26.7504 13.6417 23.7644 13.6417 20.0862C13.6417 16.4079 16.6277 13.4219 20.306 13.4219C23.9843 13.4219 26.9703 16.4079 26.9703 20.0862H27.0402Z" fill="#1ABCFE"/>
<path d="M34.3253 11.1348V28.5243H36.5621V20.2212H41.9409V18.0627H36.5621V13.3106H43.551V11.1348H34.3253ZM47.5981 14.6684C48.4075 14.6684 49.0603 14.0156 49.0603 13.2062C49.0603 12.3968 48.3988 11.831 47.5981 11.831C46.7974 11.831 46.1359 12.4838 46.1359 13.2932C46.1359 13.6849 46.2926 14.0504 46.5711 14.3376C46.8496 14.6249 47.2152 14.7728 47.6155 14.7728L47.5981 14.6684ZM46.4667 16.8616V28.5243H48.6164V16.8616H46.397H46.4667ZM57.0153 16.5135C54.0387 16.5135 51.9672 19.1245 51.9672 22.0141C51.9672 24.9036 54.0561 27.4973 57.0153 27.4973C57.631 27.5081 58.2422 27.3906 58.8101 27.1524C59.378 26.9141 59.8901 26.5603 60.3139 26.1134V27.6626C60.3076 28.5934 59.9466 29.4868 59.3043 30.1605C58.9798 30.4916 58.5925 30.7545 58.165 30.9338C57.7376 31.1132 57.2786 31.2054 56.8151 31.205C56.1033 31.1825 55.4136 30.9526 54.8307 30.5435L53.6992 32.4844C54.5681 33.0432 55.5716 33.3573 56.6041 33.3937C57.6365 33.4301 58.6596 33.1874 59.5657 32.6911C60.4718 32.1949 61.2273 31.4634 61.7526 30.5739C62.2779 29.6844 62.5536 28.6696 62.5507 27.6365V16.8442H60.3139V17.8887C59.8901 17.4418 59.378 17.088 58.8101 16.8497C58.2422 16.6115 57.631 16.494 57.0153 16.5048V16.5135ZM54.2127 22.0141C54.1618 21.4483 54.27 20.8794 54.5254 20.3719C54.7807 19.8644 55.1728 19.4383 55.6575 19.142C56.6497 18.5327 57.8943 18.5327 58.8778 19.142C59.8613 19.7512 60.4183 20.8652 60.3226 22.0141C60.3735 22.5799 60.2653 23.1488 60.01 23.6563C59.7546 24.1638 59.3625 24.5899 58.8778 24.8862C57.8856 25.4955 56.641 25.4955 55.6575 24.8862C54.674 24.277 54.117 23.163 54.2127 22.0141Z" fill="#707070"/>
<path d="M70.616 18.7932C69.9727 18.7955 69.3564 19.052 68.9015 19.5069C68.4466 19.9618 68.19 20.5781 68.1877 21.2214V28.602H65.9509V16.9393H68.1877V17.9228C68.8666 17.0177 69.9458 16.4955 71.0773 16.5129C72.5046 16.478 73.8363 17.2439 74.5412 18.4885C75.4116 17.2701 76.6649 16.5303 78.0226 16.5129C80.5728 16.5129 82.1568 18.5669 82.1655 21.1083V28.5323H79.9287V21.1344C79.9943 20.6736 79.9265 20.2036 79.7333 19.7801C79.5402 19.3566 79.2298 18.9972 78.8389 18.7445C78.448 18.4918 77.9929 18.3564 77.5274 18.3542C77.0619 18.3521 76.6056 18.4832 76.2123 18.7322C75.8212 18.9872 75.5116 19.3491 75.3203 19.775C75.129 20.2008 75.064 20.6727 75.1331 21.1344V28.5149H72.9833V21.1431C72.981 20.4998 72.7245 19.8835 72.2696 19.4286C71.8147 18.9737 71.1984 18.7171 70.5551 18.7148L70.616 18.7932ZM94.1153 18.1839C93.6062 17.6527 92.9938 17.2311 92.3158 16.9453C91.6378 16.6594 90.9085 16.5152 90.1727 16.5216C86.8392 16.5216 84.5154 19.3415 84.5154 22.614C84.5154 25.8865 86.8654 28.7064 90.1727 28.7064C90.9085 28.7128 91.6378 28.5686 92.3158 28.2827C92.9938 27.9968 93.6062 27.5753 94.1153 27.044V28.367H96.3521V16.7043H94.1153V18.1839ZM86.7174 22.7097C86.6043 21.3172 87.2831 19.9768 88.4755 19.2457C89.6679 18.5147 91.0865 18.5147 92.3572 19.2457C92.9392 19.607 93.4109 20.121 93.7209 20.7318C94.0309 21.3426 94.1674 22.0267 94.1153 22.7097C94.2285 24.1023 93.5496 25.4426 92.3572 26.1737C91.1649 26.9048 89.7462 26.9048 88.4755 26.1737C87.8935 25.8125 87.4218 25.2985 87.1118 24.6877C86.8018 24.0769 86.6654 23.3927 86.7174 22.7097Z" fill="#707070"/>
</svg>
