<svg width="101" height="40" viewBox="0 0 101 40" fill="none" xmlns="http://www.w3.org/2000/svg">
<g clip-path="url(#clip0_73_3537)">
<path fill-rule="evenodd" clip-rule="evenodd" d="M20.0165 0C8.94791 0 0 9.01388 0 20.1653C0 29.0792 5.73324 36.6246 13.6868 39.2952C14.6812 39.496 15.0454 38.8613 15.0454 38.3274C15.0454 37.8599 15.0126 36.2575 15.0126 34.5879C9.4445 35.79 8.28498 32.1841 8.28498 32.1841C7.39015 29.847 6.06429 29.2463 6.06429 29.2463C4.24185 28.011 6.19704 28.011 6.19704 28.011C8.21861 28.1446 9.27938 30.081 9.27938 30.081C11.0686 33.1522 13.9518 32.2844 15.1118 31.7502C15.2773 30.4481 15.8079 29.5467 16.3713 29.046C11.9303 28.5785 7.25781 26.8425 7.25781 19.0967C7.25781 16.8932 8.05267 15.0905 9.31216 13.6884C9.11344 13.1877 8.41732 11.1174 9.51128 8.34644C9.51128 8.34644 11.2014 7.81217 15.0122 10.4164C16.6438 9.97495 18.3263 9.7504 20.0165 9.74851C21.7067 9.74851 23.4295 9.98246 25.0205 10.4164C28.8317 7.81217 30.5218 8.34644 30.5218 8.34644C31.6158 11.1174 30.9192 13.1877 30.7205 13.6884C32.0132 15.0905 32.7753 16.8932 32.7753 19.0967C32.7753 26.8425 28.1028 28.5449 23.6287 29.046C24.358 29.6802 24.9873 30.882 24.9873 32.7851C24.9873 35.4893 24.9545 37.6596 24.9545 38.327C24.9545 38.8613 25.3192 39.496 26.3132 39.2956C34.2667 36.6242 39.9999 29.0792 39.9999 20.1653C40.0327 9.01388 31.052 0 20.0165 0Z" fill="#6A8397"/>
</g>
<path d="M54.7093 26.67C53.6213 26.67 52.6806 26.415 51.8873 25.905C51.0939 25.3837 50.4876 24.647 50.0683 23.695C49.6489 22.7317 49.4393 21.5813 49.4393 20.244C49.4393 18.8727 49.6603 17.6997 50.1023 16.725C50.5443 15.7503 51.1676 15.008 51.9723 14.498C52.7769 13.9767 53.7119 13.716 54.7773 13.716C55.5706 13.716 56.2959 13.8747 56.9533 14.192C57.6219 14.5093 58.1716 14.9287 58.6023 15.45C59.0443 15.9713 59.3106 16.5267 59.4013 17.116C59.4126 17.2067 59.4069 17.269 59.3843 17.303C59.3729 17.337 59.3333 17.3653 59.2653 17.388L58.0413 17.575C57.9846 17.5863 57.9393 17.5807 57.9053 17.558C57.8826 17.524 57.8656 17.473 57.8543 17.405C57.7749 16.9517 57.5936 16.5437 57.3103 16.181C57.0269 15.807 56.6643 15.5123 56.2223 15.297C55.7916 15.0703 55.3043 14.957 54.7603 14.957C53.9896 14.957 53.3323 15.1553 52.7883 15.552C52.2443 15.9373 51.8306 16.521 51.5473 17.303C51.2753 18.0737 51.1393 19.02 51.1393 20.142C51.1393 21.3207 51.2753 22.3067 51.5473 23.1C51.8306 23.882 52.2443 24.4657 52.7883 24.851C53.3436 25.2363 54.0123 25.429 54.7943 25.429C55.3496 25.429 55.8313 25.3383 56.2393 25.157C56.6473 24.9643 56.9873 24.715 57.2593 24.409C57.5313 24.0917 57.7409 23.7573 57.8883 23.406C58.0356 23.0433 58.1149 22.692 58.1263 22.352L58.1433 21.332C58.1659 21.2187 58.1093 21.162 57.9733 21.162H55.2023C55.1343 21.162 55.0833 21.1507 55.0493 21.128C55.0266 21.094 55.0153 21.043 55.0153 20.975V20.244C55.0153 20.142 55.0719 20.091 55.1853 20.091L59.4013 20.108C59.4806 20.108 59.5429 20.125 59.5883 20.159C59.6336 20.193 59.6563 20.244 59.6563 20.312V26.279C59.6563 26.3583 59.6393 26.415 59.6053 26.449C59.5713 26.483 59.5203 26.5 59.4523 26.5H59.0613C58.9819 26.5 58.9139 26.4887 58.8573 26.466C58.8119 26.4433 58.7779 26.3867 58.7553 26.296L58.5683 24.715C58.5569 24.6697 58.5343 24.647 58.5003 24.647C58.4776 24.647 58.4493 24.6753 58.4153 24.732C58.1999 25.072 57.9279 25.3893 57.5993 25.684C57.2706 25.9787 56.8683 26.2167 56.3923 26.398C55.9163 26.5793 55.3553 26.67 54.7093 26.67ZM62.9587 26.211C62.9587 26.3243 62.936 26.4037 62.8907 26.449C62.8567 26.483 62.7773 26.5 62.6527 26.5H61.7857C61.6837 26.5 61.6157 26.483 61.5817 26.449C61.5477 26.415 61.5307 26.3527 61.5307 26.262V17.728C61.5307 17.5693 61.5987 17.49 61.7347 17.49H62.7717C62.8963 17.49 62.9587 17.5637 62.9587 17.711V26.211ZM63.0267 15.552C63.0267 15.7673 62.9247 15.875 62.7207 15.875H61.7347C61.6327 15.875 61.5647 15.8523 61.5307 15.807C61.4967 15.7503 61.4797 15.6767 61.4797 15.586V14.158C61.4797 13.9767 61.559 13.886 61.7177 13.886H62.7887C62.9473 13.886 63.0267 13.971 63.0267 14.141V15.552ZM67.298 18.561C67.2074 18.561 67.162 18.6063 67.162 18.697V24.086C67.162 24.6187 67.2527 24.9757 67.434 25.157C67.6154 25.3383 67.8874 25.429 68.25 25.429H69.423C69.4797 25.429 69.525 25.446 69.559 25.48C69.593 25.5027 69.61 25.548 69.61 25.616L69.593 26.194C69.593 26.3073 69.525 26.381 69.389 26.415C69.2757 26.4377 69.1114 26.4547 68.896 26.466C68.692 26.4773 68.488 26.4887 68.284 26.5C68.0914 26.5 67.927 26.5 67.791 26.5C67.077 26.5 66.5557 26.3357 66.227 26.007C65.8984 25.667 65.734 25.1343 65.734 24.409V18.731C65.734 18.6177 65.6774 18.561 65.564 18.561H64.204C64.0794 18.561 64.017 18.4987 64.017 18.374V17.66C64.017 17.5467 64.0737 17.49 64.187 17.49H65.632C65.7114 17.49 65.751 17.4447 65.751 17.354L65.938 14.651C65.9494 14.5037 66.0117 14.43 66.125 14.43H66.975C67.111 14.43 67.179 14.5093 67.179 14.668V17.354C67.179 17.4447 67.2244 17.49 67.315 17.49H69.457C69.5817 17.49 69.644 17.541 69.644 17.643V18.374C69.644 18.4987 69.5817 18.561 69.457 18.561H67.298ZM72.9203 20.601C72.8296 20.601 72.7843 20.6463 72.7843 20.737V26.245C72.7843 26.415 72.6879 26.5 72.4953 26.5H71.3903C71.2996 26.5 71.2373 26.483 71.2033 26.449C71.1693 26.4037 71.1523 26.3413 71.1523 26.262V14.124C71.1523 13.9653 71.2203 13.886 71.3563 13.886H72.5803C72.7163 13.886 72.7843 13.9597 72.7843 14.107V19.105C72.7843 19.241 72.8466 19.309 72.9713 19.309H78.5473C78.6606 19.309 78.7173 19.241 78.7173 19.105V14.09C78.7173 13.954 78.7796 13.886 78.9043 13.886H80.1453C80.2813 13.886 80.3493 13.9653 80.3493 14.124V26.262C80.3493 26.3413 80.3323 26.4037 80.2983 26.449C80.2643 26.483 80.2019 26.5 80.1113 26.5H79.0063C78.8136 26.5 78.7173 26.415 78.7173 26.245V20.754C78.7173 20.652 78.6663 20.601 78.5643 20.601H72.9203ZM85.6932 25.548C86.1806 25.548 86.6452 25.4177 87.0872 25.157C87.5406 24.885 87.9882 24.5223 88.4302 24.069V17.745C88.4302 17.575 88.5209 17.49 88.7022 17.49H89.6372C89.7959 17.49 89.8752 17.5693 89.8752 17.728L89.8412 26.279C89.8412 26.4263 89.7789 26.5 89.6542 26.5H88.6682C88.5436 26.5 88.4812 26.4377 88.4812 26.313V25.31C88.4812 25.2533 88.4699 25.2193 88.4472 25.208C88.4246 25.1967 88.3849 25.2137 88.3282 25.259C87.7049 25.7917 87.1496 26.16 86.6622 26.364C86.1862 26.568 85.7102 26.67 85.2342 26.67C84.7129 26.67 84.2482 26.5623 83.8402 26.347C83.4322 26.1317 83.1092 25.8313 82.8712 25.446C82.6332 25.0493 82.5142 24.5903 82.5142 24.069V17.762C82.5142 17.5807 82.5992 17.49 82.7692 17.49H83.7212C83.8686 17.49 83.9422 17.5693 83.9422 17.728V23.695C83.9422 24.2503 84.0952 24.698 84.4012 25.038C84.7186 25.378 85.1492 25.548 85.6932 25.548ZM92.07 26.5C91.968 26.5 91.8943 26.4773 91.849 26.432C91.815 26.3867 91.798 26.3187 91.798 26.228V14.124C91.798 13.9653 91.866 13.886 92.002 13.886H93.056C93.1693 13.886 93.226 13.9653 93.226 14.124V18.289C93.226 18.4137 93.2486 18.4817 93.294 18.493C93.3393 18.493 93.4016 18.459 93.481 18.391C93.583 18.289 93.7473 18.153 93.974 17.983C94.212 17.813 94.5123 17.66 94.875 17.524C95.249 17.388 95.691 17.32 96.201 17.32C97.0283 17.32 97.7083 17.524 98.241 17.932C98.7736 18.34 99.1703 18.8953 99.431 19.598C99.703 20.2893 99.839 21.0713 99.839 21.944C99.839 23.3947 99.499 24.545 98.819 25.395C98.139 26.245 97.187 26.67 95.963 26.67C95.4416 26.67 94.994 26.5907 94.62 26.432C94.2573 26.2733 93.957 26.0863 93.719 25.871C93.481 25.6557 93.3053 25.4743 93.192 25.327C93.1466 25.2703 93.107 25.2477 93.073 25.259C93.039 25.2703 93.0163 25.31 93.005 25.378L92.92 26.228C92.8973 26.4093 92.7953 26.5 92.614 26.5H92.07ZM93.226 23.457C93.226 23.865 93.3393 24.239 93.566 24.579C93.804 24.9077 94.11 25.1683 94.484 25.361C94.858 25.5537 95.249 25.65 95.657 25.65C96.167 25.65 96.626 25.5253 97.034 25.276C97.442 25.0153 97.765 24.613 98.003 24.069C98.241 23.525 98.36 22.828 98.36 21.978C98.36 20.822 98.139 19.9323 97.697 19.309C97.255 18.6743 96.6146 18.357 95.776 18.357C95.2433 18.357 94.756 18.4817 94.314 18.731C93.8833 18.969 93.5206 19.2637 93.226 19.615V23.457Z" fill="black"/>
<defs>
<clipPath id="clip0_73_3537">
<rect width="40" height="40" rx="2" fill="white"/>
</clipPath>
</defs>
</svg>
