<svg width="385" height="32" viewBox="0 0 385 32" fill="none" xmlns="http://www.w3.org/2000/svg">
<circle cx="16" cy="16" r="12" stroke="#33363F" stroke-width="2"/>
<ellipse cx="16" cy="16" rx="4.5" ry="12" stroke="#33363F" stroke-width="2"/>
<path d="M4 16H28" stroke="#33363F" stroke-width="2" stroke-linecap="round"/>
<path d="M54.18 23.16C53.1133 23.16 52.0933 23 51.12 22.68C50.1467 22.3467 49.38 21.92 48.82 21.4L49.56 19.84C50.0933 20.3067 50.7733 20.6933 51.6 21C52.4267 21.3067 53.2867 21.46 54.18 21.46C54.9933 21.46 55.6533 21.3667 56.16 21.18C56.6667 20.9933 57.04 20.74 57.28 20.42C57.52 20.0867 57.64 19.7133 57.64 19.3C57.64 18.82 57.48 18.4333 57.16 18.14C56.8533 17.8467 56.4467 17.6133 55.94 17.44C55.4467 17.2533 54.9 17.0933 54.3 16.96C53.7 16.8267 53.0933 16.6733 52.48 16.5C51.88 16.3133 51.3267 16.08 50.82 15.8C50.3267 15.52 49.9267 15.1467 49.62 14.68C49.3133 14.2 49.16 13.5867 49.16 12.84C49.16 12.12 49.3467 11.46 49.72 10.86C50.1067 10.2467 50.6933 9.76 51.48 9.4C52.28 9.02667 53.2933 8.84 54.52 8.84C55.3333 8.84 56.14 8.94667 56.94 9.16C57.74 9.37333 58.4333 9.68 59.02 10.08L58.36 11.68C57.76 11.28 57.1267 10.9933 56.46 10.82C55.7933 10.6333 55.1467 10.54 54.52 10.54C53.7333 10.54 53.0867 10.64 52.58 10.84C52.0733 11.04 51.7 11.3067 51.46 11.64C51.2333 11.9733 51.12 12.3467 51.12 12.76C51.12 13.2533 51.2733 13.6467 51.58 13.94C51.9 14.2333 52.3067 14.4667 52.8 14.64C53.3067 14.8133 53.86 14.9733 54.46 15.12C55.06 15.2533 55.66 15.4067 56.26 15.58C56.8733 15.7533 57.4267 15.98 57.92 16.26C58.4267 16.54 58.8333 16.9133 59.14 17.38C59.4467 17.8467 59.6 18.4467 59.6 19.18C59.6 19.8867 59.4067 20.5467 59.02 21.16C58.6333 21.76 58.0333 22.2467 57.22 22.62C56.42 22.98 55.4067 23.16 54.18 23.16ZM63.7219 23V9H69.1819C70.4085 9 71.4552 9.19333 72.3219 9.58C73.1885 9.96667 73.8552 10.5267 74.3219 11.26C74.7885 11.9933 75.0219 12.8667 75.0219 13.88C75.0219 14.8933 74.7885 15.7667 74.3219 16.5C73.8552 17.22 73.1885 17.78 72.3219 18.18C71.4552 18.5667 70.4085 18.76 69.1819 18.76H64.8219L65.7219 17.82V23H63.7219ZM65.7219 18.02L64.8219 17.02H69.1219C70.4019 17.02 71.3685 16.7467 72.0219 16.2C72.6885 15.6533 73.0219 14.88 73.0219 13.88C73.0219 12.88 72.6885 12.1067 72.0219 11.56C71.3685 11.0133 70.4019 10.74 69.1219 10.74H64.8219L65.7219 9.74V18.02ZM76.337 23L82.677 9H84.657L91.017 23H88.917L83.257 10.12H84.057L78.397 23H76.337ZM79.037 19.5L79.577 17.9H87.457L88.037 19.5H79.037ZM94.3055 23V9H95.9455L105.205 20.5H104.345V9H106.345V23H104.705L95.4455 11.5H96.3055V23H94.3055ZM111.736 23V9H113.736V23H111.736ZM123.207 23.16C122.141 23.16 121.121 23 120.147 22.68C119.174 22.3467 118.407 21.92 117.847 21.4L118.587 19.84C119.121 20.3067 119.801 20.6933 120.627 21C121.454 21.3067 122.314 21.46 123.207 21.46C124.021 21.46 124.681 21.3667 125.187 21.18C125.694 20.9933 126.067 20.74 126.307 20.42C126.547 20.0867 126.667 19.7133 126.667 19.3C126.667 18.82 126.507 18.4333 126.187 18.14C125.881 17.8467 125.474 17.6133 124.967 17.44C124.474 17.2533 123.927 17.0933 123.327 16.96C122.727 16.8267 122.121 16.6733 121.507 16.5C120.907 16.3133 120.354 16.08 119.847 15.8C119.354 15.52 118.954 15.1467 118.647 14.68C118.341 14.2 118.187 13.5867 118.187 12.84C118.187 12.12 118.374 11.46 118.747 10.86C119.134 10.2467 119.721 9.76 120.507 9.4C121.307 9.02667 122.321 8.84 123.547 8.84C124.361 8.84 125.167 8.94667 125.967 9.16C126.767 9.37333 127.461 9.68 128.047 10.08L127.387 11.68C126.787 11.28 126.154 10.9933 125.487 10.82C124.821 10.6333 124.174 10.54 123.547 10.54C122.761 10.54 122.114 10.64 121.607 10.84C121.101 11.04 120.727 11.3067 120.487 11.64C120.261 11.9733 120.147 12.3467 120.147 12.76C120.147 13.2533 120.301 13.6467 120.607 13.94C120.927 14.2333 121.334 14.4667 121.827 14.64C122.334 14.8133 122.887 14.9733 123.487 15.12C124.087 15.2533 124.687 15.4067 125.287 15.58C125.901 15.7533 126.454 15.98 126.947 16.26C127.454 16.54 127.861 16.9133 128.167 17.38C128.474 17.8467 128.627 18.4467 128.627 19.18C128.627 19.8867 128.434 20.5467 128.047 21.16C127.661 21.76 127.061 22.2467 126.247 22.62C125.447 22.98 124.434 23.16 123.207 23.16ZM142.789 9H144.789V23H142.789V9ZM134.749 23H132.749V9H134.749V23ZM142.969 16.76H134.549V15.02H142.969V16.76ZM154.091 25L160.691 6.16H162.431L155.831 25H154.091ZM173.373 15.04H180.573V16.74H173.373V15.04ZM173.553 21.26H181.713V23H171.553V9H181.433V10.74H173.553V21.26ZM186.152 23V9H187.792L197.052 20.5H196.192V9H198.192V23H196.552L187.292 11.5H188.152V23H186.152ZM209.902 23.16C208.822 23.16 207.829 22.9867 206.922 22.64C206.015 22.28 205.229 21.78 204.562 21.14C203.895 20.4867 203.375 19.7267 203.002 18.86C202.629 17.9933 202.442 17.04 202.442 16C202.442 14.96 202.629 14.0067 203.002 13.14C203.375 12.2733 203.895 11.52 204.562 10.88C205.242 10.2267 206.035 9.72667 206.942 9.38C207.849 9.02 208.849 8.84 209.942 8.84C211.049 8.84 212.062 9.02 212.982 9.38C213.902 9.74 214.682 10.28 215.322 11L214.082 12.24C213.509 11.68 212.882 11.2733 212.202 11.02C211.535 10.7533 210.809 10.62 210.022 10.62C209.222 10.62 208.475 10.7533 207.782 11.02C207.102 11.2867 206.509 11.66 206.002 12.14C205.509 12.62 205.122 13.1933 204.842 13.86C204.575 14.5133 204.442 15.2267 204.442 16C204.442 16.76 204.575 17.4733 204.842 18.14C205.122 18.7933 205.509 19.3667 206.002 19.86C206.509 20.34 207.102 20.7133 207.782 20.98C208.462 21.2467 209.202 21.38 210.002 21.38C210.749 21.38 211.462 21.2667 212.142 21.04C212.835 20.8 213.475 20.4067 214.062 19.86L215.202 21.38C214.509 21.9667 213.695 22.4133 212.762 22.72C211.842 23.0133 210.889 23.16 209.902 23.16ZM213.282 21.12V15.92H215.202V21.38L213.282 21.12ZM220.231 23V9H222.231V21.26H229.811V23H220.231ZM233.306 23V9H235.306V23H233.306ZM244.778 23.16C243.711 23.16 242.691 23 241.718 22.68C240.744 22.3467 239.978 21.92 239.418 21.4L240.158 19.84C240.691 20.3067 241.371 20.6933 242.198 21C243.024 21.3067 243.884 21.46 244.778 21.46C245.591 21.46 246.251 21.3667 246.758 21.18C247.264 20.9933 247.638 20.74 247.878 20.42C248.118 20.0867 248.238 19.7133 248.238 19.3C248.238 18.82 248.078 18.4333 247.758 18.14C247.451 17.8467 247.044 17.6133 246.538 17.44C246.044 17.2533 245.498 17.0933 244.898 16.96C244.298 16.8267 243.691 16.6733 243.078 16.5C242.478 16.3133 241.924 16.08 241.418 15.8C240.924 15.52 240.524 15.1467 240.218 14.68C239.911 14.2 239.758 13.5867 239.758 12.84C239.758 12.12 239.944 11.46 240.318 10.86C240.704 10.2467 241.291 9.76 242.078 9.4C242.878 9.02667 243.891 8.84 245.118 8.84C245.931 8.84 246.738 8.94667 247.538 9.16C248.338 9.37333 249.031 9.68 249.618 10.08L248.958 11.68C248.358 11.28 247.724 10.9933 247.058 10.82C246.391 10.6333 245.744 10.54 245.118 10.54C244.331 10.54 243.684 10.64 243.178 10.84C242.671 11.04 242.298 11.3067 242.058 11.64C241.831 11.9733 241.718 12.3467 241.718 12.76C241.718 13.2533 241.871 13.6467 242.178 13.94C242.498 14.2333 242.904 14.4667 243.398 14.64C243.904 14.8133 244.458 14.9733 245.058 15.12C245.658 15.2533 246.258 15.4067 246.858 15.58C247.471 15.7533 248.024 15.98 248.518 16.26C249.024 16.54 249.431 16.9133 249.738 17.38C250.044 17.8467 250.198 18.4467 250.198 19.18C250.198 19.8867 250.004 20.5467 249.618 21.16C249.231 21.76 248.631 22.2467 247.818 22.62C247.018 22.98 246.004 23.16 244.778 23.16ZM264.36 9H266.36V23H264.36V9ZM256.32 23H254.32V9H256.32V23ZM264.54 16.76H256.12V15.02H264.54V16.76ZM275.661 25L282.261 6.16H284.001L277.401 25H275.661ZM294.923 15.62H302.143V17.34H294.923V15.62ZM295.123 23H293.123V9H303.003V10.74H295.123V23ZM307.019 23V9H312.479C313.705 9 314.752 9.19333 315.619 9.58C316.485 9.96667 317.152 10.5267 317.619 11.26C318.085 11.9933 318.319 12.8667 318.319 13.88C318.319 14.8933 318.085 15.7667 317.619 16.5C317.152 17.22 316.485 17.7733 315.619 18.16C314.752 18.5467 313.705 18.74 312.479 18.74H308.119L309.019 17.82V23H307.019ZM316.379 23L312.819 17.92H314.959L318.559 23H316.379ZM309.019 18.02L308.119 17.04H312.419C313.699 17.04 314.665 16.7667 315.319 16.22C315.985 15.66 316.319 14.88 316.319 13.88C316.319 12.88 315.985 12.1067 315.319 11.56C314.665 11.0133 313.699 10.74 312.419 10.74H308.119L309.019 9.74V18.02ZM324.57 15.04H331.77V16.74H324.57V15.04ZM324.75 21.26H332.91V23H322.75V9H332.63V10.74H324.75V21.26ZM337.348 23V9H338.988L348.248 20.5H347.388V9H349.388V23H347.748L338.488 11.5H339.348V23H337.348ZM361.039 23.16C359.972 23.16 358.986 22.9867 358.079 22.64C357.186 22.28 356.406 21.78 355.739 21.14C355.086 20.4867 354.572 19.7267 354.199 18.86C353.826 17.9933 353.639 17.04 353.639 16C353.639 14.96 353.826 14.0067 354.199 13.14C354.572 12.2733 355.092 11.52 355.759 10.88C356.426 10.2267 357.206 9.72667 358.099 9.38C359.006 9.02 359.992 8.84 361.059 8.84C362.139 8.84 363.132 9.02667 364.039 9.4C364.959 9.76 365.739 10.3 366.379 11.02L365.079 12.28C364.546 11.72 363.946 11.3067 363.279 11.04C362.612 10.76 361.899 10.62 361.139 10.62C360.352 10.62 359.619 10.7533 358.939 11.02C358.272 11.2867 357.692 11.66 357.199 12.14C356.706 12.62 356.319 13.1933 356.039 13.86C355.772 14.5133 355.639 15.2267 355.639 16C355.639 16.7733 355.772 17.4933 356.039 18.16C356.319 18.8133 356.706 19.38 357.199 19.86C357.692 20.34 358.272 20.7133 358.939 20.98C359.619 21.2467 360.352 21.38 361.139 21.38C361.899 21.38 362.612 21.2467 363.279 20.98C363.946 20.7 364.546 20.2733 365.079 19.7L366.379 20.96C365.739 21.68 364.959 22.2267 364.039 22.6C363.132 22.9733 362.132 23.16 361.039 23.16ZM380.472 9H382.472V23H380.472V9ZM372.432 23H370.432V9H372.432V23ZM380.652 16.76H372.232V15.02H380.652V16.76Z" fill="black"/>
</svg>
