<svg width="360" height="52" viewBox="0 0 360 52" fill="none" xmlns="http://www.w3.org/2000/svg">
<path d="M8.75684 34.8496C6.25488 34.8496 4.5459 34.8291 3.62988 34.7881L3.03516 36.2031C2.85742 36.5996 2.69336 37.0166 2.54297 37.4541C2.22852 38.3018 1.79102 38.7256 1.23047 38.7256C0.970703 38.7256 0.758789 38.6436 0.594727 38.4795C0.430664 38.3154 0.348633 38.1445 0.348633 37.9668C0.348633 37.666 0.478516 37.3311 0.738281 36.9619C1.14844 36.3877 1.55176 35.6357 1.94824 34.7061C0.772461 34.5967 0.18457 34.2549 0.18457 33.6807C0.18457 33.1064 0.519531 32.8193 1.18945 32.8193C1.59961 32.8193 2.07812 32.8877 2.625 33.0244L12.8584 8.16895L26.8857 38.5H16.2012L14.499 34.8496H8.75684ZM4.28613 33.1885C5.59863 33.2979 6.77441 33.3525 7.81348 33.3525H13.8223L8.69531 22.2988L4.28613 33.1885ZM31.3564 9.48145H40.1748V38.5H31.3564V9.48145ZM65.9326 33.5166C66.4658 33.5166 66.7324 33.7627 66.7324 34.2549C66.7324 34.624 66.4932 35.0615 66.0146 35.5674C63.8545 37.7822 60.8945 38.8896 57.1348 38.8896C53.7578 38.8896 50.9141 37.8711 48.6035 35.834C46.2109 33.7148 45.0146 31.0352 45.0146 27.7949C45.0146 24.4863 46.0947 21.7656 48.2549 19.6328C50.5381 17.3633 53.5732 16.2285 57.3604 16.2285C60.3955 16.2285 62.9453 17.1514 65.0098 18.9971C67.2383 20.9795 68.3525 23.584 68.3525 26.8105C68.3525 27.2754 68.3389 27.7676 68.3115 28.2871H54.7764V37.085C55.7061 37.2764 56.752 37.3721 57.9141 37.3721C60.375 37.3721 62.4736 36.5586 64.21 34.9316C64.5654 34.5762 64.8184 34.2959 64.9688 34.0908C65.2832 33.708 65.6045 33.5166 65.9326 33.5166ZM60.457 18.1152C59.5684 17.8555 58.5635 17.7256 57.4424 17.7256C56.3213 17.7256 55.4326 17.8008 54.7764 17.9512V26.79H60.457V18.1152ZM78.7705 13.0088C77.3623 13.0088 76.2617 12.6943 75.4688 12.0654C74.6758 11.4365 74.2793 10.6094 74.2793 9.58398C74.2793 8.72266 74.7168 7.98438 75.5918 7.36914C76.5215 6.71289 77.5059 6.38477 78.5449 6.38477C79.584 6.38477 80.3838 6.4873 80.9443 6.69238C81.5186 6.89746 82.0039 7.16406 82.4004 7.49219C83.1934 8.16211 83.5898 8.94141 83.5898 9.83008C83.5898 10.7187 83.1387 11.4707 82.2363 12.0859C81.334 12.7012 80.1787 13.0088 78.7705 13.0088ZM68.9678 42.6631C69.2822 42.6631 69.6309 42.8271 70.0137 43.1553C70.3828 43.4834 70.6836 43.709 70.916 43.832C71.4492 44.1055 72.0645 44.2422 72.7617 44.2422C73.459 44.2422 74.0469 44.208 74.5254 44.1396V16.5977H83.3027L83.2822 36.3262C83.2822 39.5117 82.3047 41.918 80.3496 43.5449C78.5723 45.0078 76.1523 45.7393 73.0898 45.7393C71.5176 45.7393 70.3965 45.5752 69.7266 45.2471C68.6191 44.7139 68.0654 44.1465 68.0654 43.5449C68.0654 42.957 68.3662 42.6631 68.9678 42.6631ZM103.729 37.1465C101.979 38.3086 100.037 38.8896 97.9043 38.8896C95.0742 38.8896 92.8047 38.1787 91.0957 36.7568C89.3184 35.2939 88.4297 33.2637 88.4297 30.666C88.4297 28.3691 89.3115 26.4824 91.0752 25.0059C92.8799 23.5156 95.252 22.7705 98.1914 22.7705C100.16 22.7705 102.006 23.1465 103.729 23.8984V18.2588C102.484 17.9033 101.384 17.7256 100.427 17.7256C99.4834 17.7256 98.6836 17.7666 98.0273 17.8486C97.3711 17.9307 96.749 18.0537 96.1611 18.2178C94.8896 18.5732 93.9258 19.0518 93.2695 19.6533C92.8867 20.0088 92.5381 20.1865 92.2236 20.1865C91.9092 20.1865 91.6699 20.1113 91.5059 19.9609C91.3418 19.7969 91.2598 19.6191 91.2598 19.4277C91.2598 19.2363 91.2939 19.0654 91.3623 18.915C91.4307 18.751 91.5605 18.5869 91.752 18.4229C92.1621 18.0674 92.8457 17.7119 93.8027 17.3564C95.7852 16.6045 97.7744 16.2285 99.7705 16.2285C105.841 16.2285 109.717 17.6777 111.398 20.5762C112.137 21.8613 112.506 23.5498 112.506 25.6416V38.5H103.729V37.1465ZM103.729 25.498C102.006 24.6641 100.29 24.2471 98.5811 24.2471C98.3076 24.2471 98.0479 24.2676 97.8018 24.3086V37.3516C97.8701 37.3652 97.9453 37.3721 98.0273 37.3721C98.1094 37.3721 98.1914 37.3721 98.2734 37.3721C100.146 37.3721 101.965 36.709 103.729 35.3828V25.498ZM134.101 18.833C133.759 18.6143 133.39 18.5049 132.993 18.5049C132.597 18.5049 132.187 18.6006 131.763 18.792C131.339 18.9697 130.895 19.2227 130.43 19.5508C129.459 20.248 128.563 21.1777 127.743 22.3398V38.5H118.925V16.5977H127.743V20.1045C130.081 17.5205 132.727 16.2285 135.68 16.2285C140.506 16.2285 142.919 18.5664 142.919 23.2422V38.5H134.101V18.833ZM165.17 37.3721C163.461 38.3838 161.649 38.8896 159.735 38.8896C157.835 38.8896 156.16 38.6094 154.711 38.0488C153.275 37.4746 152.045 36.6816 151.02 35.6699C148.887 33.5508 147.82 30.7959 147.82 27.4053C147.82 24.2607 148.873 21.6426 150.979 19.5508C153.221 17.3359 156.146 16.2285 159.756 16.2285C161.67 16.2285 163.475 16.6455 165.17 17.4795V9.48145H173.619V38.5H165.17V37.3721ZM159.346 17.7256C158.922 17.7256 158.519 17.7529 158.136 17.8076V37.249C158.628 37.3311 159.161 37.3721 159.735 37.3721C161.636 37.3721 163.447 36.7705 165.17 35.5674V19.3047C163.324 18.252 161.383 17.7256 159.346 17.7256ZM180.325 16.5977H189.144V23.0371C190.087 20.6992 191.099 18.9834 192.179 17.8896C193.272 16.7822 194.366 16.2285 195.46 16.2285C196.075 16.2285 196.561 16.3926 196.916 16.7207C197.285 17.0352 197.47 17.3906 197.47 17.7871C197.47 18.1836 197.415 18.498 197.306 18.7305C197.196 18.9629 197.053 19.1611 196.875 19.3252C196.506 19.667 196.157 19.8379 195.829 19.8379C195.31 19.8379 194.927 19.7832 194.681 19.6738C194.257 19.4824 193.881 19.3867 193.553 19.3867C193.225 19.3867 192.808 19.6533 192.302 20.1865C191.796 20.7061 191.311 21.4307 190.846 22.3604C189.711 24.6299 189.144 27.0908 189.144 29.7432V38.5H180.325V16.5977ZM198.249 27.4258C198.249 25.7852 198.543 24.2949 199.131 22.9551C199.732 21.6016 200.553 20.4258 201.592 19.4277C203.834 17.2949 206.65 16.2285 210.041 16.2285C213.5 16.2285 216.316 17.3359 218.49 19.5508C220.568 21.6426 221.607 24.2881 221.607 27.4873C221.607 30.7002 220.541 33.3867 218.408 35.5469C216.207 37.7754 213.391 38.8896 209.959 38.8896C206.609 38.8896 203.834 37.8301 201.633 35.7109C199.377 33.5234 198.249 30.7617 198.249 27.4258ZM209.385 37.3516C209.494 37.3652 209.604 37.3721 209.713 37.3721H210C212.762 37.3721 215.079 36.5176 216.952 34.8086C218.948 32.9629 219.946 30.543 219.946 27.5488C219.946 24.623 219.01 22.251 217.137 20.4326C215.291 18.6279 212.905 17.7256 209.979 17.7256H209.672C209.576 17.7256 209.48 17.7324 209.385 17.7461V37.3516Z" fill="#23719F"/>
<path d="M260.615 37.2363C261.312 37.2363 261.661 37.5098 261.661 38.0566C261.661 38.3027 261.511 38.5215 261.21 38.7129C260.909 38.9043 260.39 39 259.651 39H242.281V9.98145C247.668 9.98145 253.055 9.98145 258.441 9.98145L260.123 9.91992C261.148 9.91992 261.661 10.2207 261.661 10.8223C261.661 11.0547 261.572 11.2734 261.395 11.4785C261.23 11.6699 261.039 11.7656 260.82 11.7656C260.465 11.7656 260.089 11.7246 259.692 11.6426C259.104 11.5195 258.298 11.458 257.272 11.458H252.74V17.7129H256.473C256.473 17.7129 257.313 17.6787 258.995 17.6104C259.296 17.6104 259.549 17.6855 259.754 17.8359C259.973 17.9727 260.082 18.1709 260.082 18.4307C260.082 19.0049 259.699 19.292 258.934 19.292L258.052 19.2715C257.601 19.2305 257.225 19.21 256.924 19.21H252.74V37.5029H257.272C258.284 37.5029 259.002 37.4619 259.426 37.3799C259.932 37.2842 260.328 37.2363 260.615 37.2363ZM265.476 36.252C265.476 36.0469 265.544 35.8623 265.681 35.6982C265.831 35.5205 266.022 35.4316 266.255 35.4316C266.487 35.4316 266.679 35.5 266.829 35.6367C266.829 35.6367 267 35.7939 267.342 36.1084C268.764 37.3525 270.753 37.9746 273.31 37.9746C275.032 37.9746 276.14 37.6191 276.632 36.9082C276.769 36.7168 276.837 36.5254 276.837 36.334C276.837 36.1289 276.796 35.9375 276.714 35.7598C276.646 35.5684 276.488 35.3428 276.242 35.083C275.996 34.8096 275.647 34.4883 275.196 34.1191L273.392 32.6631C270.411 30.3389 268.367 28.4521 267.26 27.0029C266.248 25.6768 265.742 24.3232 265.742 22.9424C265.742 21.2061 266.542 19.75 268.142 18.5742C269.796 17.3438 271.936 16.7285 274.561 16.7285C276.406 16.7285 277.862 16.9404 278.929 17.3643C279.995 17.7881 280.747 18.1777 281.185 18.5332C281.622 18.875 281.841 19.1895 281.841 19.4766C281.841 20.0645 281.608 20.3584 281.144 20.3584C280.925 20.3584 280.72 20.2832 280.528 20.1328C280.351 19.9688 279.988 19.7021 279.441 19.333C278.895 18.9502 278.17 18.6494 277.268 18.4307C276.365 18.2119 275.524 18.1025 274.745 18.1025C273.966 18.1025 273.412 18.2256 273.084 18.4717C272.77 18.7178 272.612 18.9639 272.612 19.21C272.612 19.4424 272.66 19.668 272.756 19.8867C272.852 20.0918 273.029 20.3379 273.289 20.625C273.891 21.3359 274.854 22.1768 276.181 23.1475C277.507 24.1182 278.628 25.0068 279.544 25.8135C280.46 26.6201 281.178 27.3652 281.697 28.0488C282.641 29.2793 283.112 30.5234 283.112 31.7812C283.112 33.0391 282.88 34.1191 282.415 35.0215C281.95 35.9102 281.287 36.6758 280.426 37.3184C278.607 38.6992 276.181 39.3896 273.146 39.3896C270.712 39.3896 268.682 38.9248 267.055 37.9951C266.002 37.4072 265.476 36.8262 265.476 36.252ZM302.021 39.3896C300.12 39.3896 298.281 38.959 296.504 38.0977V45.5625H288.075V17.0977H296.504V18.2256C298.295 17.2275 300.127 16.7285 302 16.7285C303.873 16.7285 305.527 17.0088 306.963 17.5693C308.398 18.1299 309.629 18.9023 310.654 19.8867C312.773 21.9648 313.833 24.624 313.833 27.8643C313.833 31.1318 312.787 33.8457 310.695 36.0059C308.535 38.2617 305.644 39.3896 302.021 39.3896ZM301.959 18.2256C299.936 18.2256 298.117 18.7861 296.504 19.9072V36.2725C298.35 37.3389 300.359 37.8721 302.533 37.8721H303.066C303.23 37.8721 303.388 37.8584 303.538 37.8311V18.3486C303.019 18.2666 302.492 18.2256 301.959 18.2256ZM319.083 9.98145H327.901V39H319.083V9.98145ZM348.348 37.6465C346.598 38.8086 344.656 39.3896 342.523 39.3896C339.693 39.3896 337.424 38.6787 335.715 37.2568C333.938 35.7939 333.049 33.7637 333.049 31.166C333.049 28.8691 333.931 26.9824 335.694 25.5059C337.499 24.0156 339.871 23.2705 342.811 23.2705C344.779 23.2705 346.625 23.6465 348.348 24.3984V18.7588C347.104 18.4033 346.003 18.2256 345.046 18.2256C344.103 18.2256 343.303 18.2666 342.646 18.3486C341.99 18.4307 341.368 18.5537 340.78 18.7178C339.509 19.0732 338.545 19.5518 337.889 20.1533C337.506 20.5088 337.157 20.6865 336.843 20.6865C336.528 20.6865 336.289 20.6113 336.125 20.4609C335.961 20.2969 335.879 20.1191 335.879 19.9277C335.879 19.7363 335.913 19.5654 335.981 19.415C336.05 19.251 336.18 19.0869 336.371 18.9229C336.781 18.5674 337.465 18.2119 338.422 17.8564C340.404 17.1045 342.394 16.7285 344.39 16.7285C350.46 16.7285 354.336 18.1777 356.018 21.0762C356.756 22.3613 357.125 24.0498 357.125 26.1416V39H348.348V37.6465ZM348.348 25.998C346.625 25.1641 344.909 24.7471 343.2 24.7471C342.927 24.7471 342.667 24.7676 342.421 24.8086V37.8516C342.489 37.8652 342.564 37.8721 342.646 37.8721C342.729 37.8721 342.811 37.8721 342.893 37.8721C344.766 37.8721 346.584 37.209 348.348 35.8828V25.998ZM346.769 6.53613H352.531L347.548 12.3604H344.349L346.769 6.53613Z" fill="#23719F"/>
</svg>
