<svg width="72" height="96" viewBox="0 0 72 96" fill="none" xmlns="http://www.w3.org/2000/svg">
<path d="M37.6665 3.91577C39.1954 3.91577 40.493 3.91291 41.5239 4.05151C42.598 4.19592 43.6042 4.51848 44.4175 5.33179C45.2307 6.14507 45.5534 7.15137 45.6978 8.22534C45.8363 9.25618 45.8335 10.554 45.8335 12.0828V28.7488C45.8335 30.2776 45.8363 31.5754 45.6978 32.6062C45.5534 33.6802 45.2307 34.6865 44.4175 35.4998C43.6042 36.3131 42.598 36.6356 41.5239 36.78C40.493 36.9186 39.1954 36.9158 37.6665 36.9158H34.3335C32.8047 36.9158 31.5069 36.9186 30.4761 36.78C29.402 36.6356 28.3958 36.3131 27.5825 35.4998C26.7692 34.6864 26.4466 33.6802 26.3022 32.6062C26.1637 31.5754 26.1665 30.2776 26.1665 28.7488V12.0828C26.1665 10.554 26.1637 9.25619 26.3022 8.22534C26.4466 7.1513 26.7692 6.1451 27.5825 5.33179C28.3958 4.51848 29.402 4.19592 30.4761 4.05151C31.5069 3.91295 32.8047 3.91577 34.3335 3.91577H37.6665Z" stroke="#222222" stroke-width="3"/>
<path d="M27.6665 27.0825H44.3332" stroke="#222222" stroke-width="3"/>
<path d="M28.0173 60.4158L26.3373 56.6758H18.5373L16.8573 60.4158H15.3173L21.7173 46.4158H23.1773L29.5773 60.4158H28.0173ZM19.0773 55.4758H25.7973L22.4373 47.9558L19.0773 55.4758ZM37.0133 49.8158C40.0133 49.8158 42.2533 51.9758 42.2533 55.1558C42.2533 58.3558 40.0133 60.5158 37.0133 60.5158C35.3333 60.5158 33.8933 59.7958 33.0133 58.4358V64.2958H31.5933V49.8958H32.9533V51.9758C33.8133 50.5758 35.2733 49.8158 37.0133 49.8158ZM36.9133 59.2558C39.1333 59.2558 40.8333 57.6158 40.8333 55.1558C40.8333 52.7158 39.1333 51.0558 36.9133 51.0558C34.6733 51.0558 32.9933 52.7158 32.9933 55.1558C32.9933 57.6158 34.6733 59.2558 36.9133 59.2558ZM50.568 49.8158C53.568 49.8158 55.808 51.9758 55.808 55.1558C55.808 58.3558 53.568 60.5158 50.568 60.5158C48.888 60.5158 47.448 59.7958 46.568 58.4358V64.2958H45.148V49.8958H46.508V51.9758C47.368 50.5758 48.828 49.8158 50.568 49.8158ZM50.468 59.2558C52.688 59.2558 54.388 57.6158 54.388 55.1558C54.388 52.7158 52.688 51.0558 50.468 51.0558C48.228 51.0558 46.548 52.7158 46.548 55.1558C46.548 57.6158 48.228 59.2558 50.468 59.2558ZM2.78195 91.4158V77.4158H8.48195C12.962 77.4158 15.982 80.2958 15.982 84.4158C15.982 88.5358 12.962 91.4158 8.48195 91.4158H2.78195ZM4.26195 90.1358H8.40195C12.122 90.1358 14.522 87.7758 14.522 84.4158C14.522 81.0558 12.122 78.6958 8.40195 78.6958H4.26195V90.1358ZM28.1854 86.1558C28.1854 86.2758 28.1654 86.4358 28.1654 86.5958H19.3654C19.5254 88.7958 21.2054 90.2558 23.5054 90.2558C24.7854 90.2558 25.9254 89.7958 26.7254 88.8758L27.5254 89.7958C26.5854 90.9158 25.1254 91.5158 23.4654 91.5158C20.1854 91.5158 17.9454 89.2758 17.9454 86.1558C17.9454 83.0358 20.1254 80.8158 23.0854 80.8158C26.0454 80.8158 28.1854 82.9958 28.1854 86.1558ZM23.0854 82.0358C21.0454 82.0358 19.5454 83.4758 19.3654 85.5358H26.8254C26.6454 83.4758 25.1454 82.0358 23.0854 82.0358ZM33.8957 91.5158C32.1557 91.5158 30.4757 90.9558 29.6157 90.2158L30.2557 89.0958C31.0957 89.7558 32.5157 90.2758 33.9957 90.2758C35.9957 90.2758 36.8157 89.5958 36.8157 88.5558C36.8157 85.8158 29.9957 87.9758 29.9957 83.8158C29.9957 82.0958 31.4757 80.8158 34.1557 80.8158C35.5157 80.8158 36.9957 81.1958 37.8757 81.7958L37.2557 82.9358C36.3357 82.2958 35.2357 82.0358 34.1557 82.0358C32.2557 82.0358 31.4157 82.7758 31.4157 83.7758C31.4157 86.6158 38.2357 84.4758 38.2357 88.5158C38.2357 90.3358 36.6357 91.5158 33.8957 91.5158ZM41.5809 78.5958C41.0009 78.5958 40.5409 78.1358 40.5409 77.5758C40.5409 77.0358 41.0009 76.5758 41.5809 76.5758C42.1609 76.5758 42.6209 77.0158 42.6209 77.5558C42.6209 78.1358 42.1809 78.5958 41.5809 78.5958ZM40.8609 91.4158V80.8958H42.2809V91.4158H40.8609ZM54.612 80.8958H55.972V90.1358C55.972 93.7558 54.192 95.3958 50.712 95.3958C48.792 95.3958 46.912 94.8158 45.812 93.7758L46.532 92.6958C47.532 93.5958 49.052 94.1358 50.672 94.1358C53.332 94.1358 54.552 92.9158 54.552 90.3158V88.9758C53.672 90.3158 52.172 91.0158 50.452 91.0158C47.452 91.0158 45.172 88.9158 45.172 85.8958C45.172 82.8758 47.452 80.8158 50.452 80.8158C52.212 80.8158 53.732 81.5358 54.612 82.9158V80.8958ZM50.592 89.7558C52.912 89.7558 54.592 88.1758 54.592 85.8958C54.592 83.6158 52.912 82.0558 50.592 82.0558C48.272 82.0558 46.612 83.6158 46.612 85.8958C46.612 88.1758 48.272 89.7558 50.592 89.7558ZM65.3029 80.8158C67.8629 80.8158 69.6229 82.2958 69.6229 85.3158V91.4158H68.2029V85.4558C68.2029 83.2358 67.0429 82.0958 65.0429 82.0958C62.7829 82.0958 61.3629 83.4958 61.3629 85.8958V91.4158H59.9429V80.8958H61.3029V82.8358C62.0629 81.5558 63.4829 80.8158 65.3029 80.8158Z" fill="#222222"/>
</svg>
