<svg width="49" height="48" viewBox="0 0 49 48" fill="none" xmlns="http://www.w3.org/2000/svg">
<path d="M48.726 35.6555C48.4319 35.1247 47.645 34.8079 46.4607 34.17C45.2804 33.5322 39.474 30.4542 38.389 30.0304C37.308 29.6066 36.5211 29.3926 35.7303 30.6683C34.9434 31.9397 32.678 34.8079 31.9905 35.6555C31.303 36.5031 30.6114 36.6101 29.4311 35.9723C28.2507 35.3344 24.4434 33.9945 19.9327 29.658C16.4234 26.2846 14.0508 22.1193 13.3632 20.8436C12.6757 19.5722 13.2917 18.883 13.8799 18.2494C14.4124 17.6801 15.0602 16.764 15.6524 16.0191C16.2525 15.2828 16.4473 14.7519 16.8447 13.9C17.2381 13.0524 17.0434 12.3076 16.7453 11.6697C16.4473 11.0361 14.0866 4.77319 13.1049 2.22606C12.1431 -0.252572 11.1695 0.0813358 10.4462 0.0428078L8.18083 0C7.39393 0 6.11423 0.316784 5.03323 1.59249C3.95224 2.86819 0.900024 5.94187 0.900024 12.2048C0.900024 18.4677 5.13259 24.5166 5.72078 25.3643C6.31294 26.2119 14.0468 39.0631 25.894 44.5726C28.7118 45.8825 30.9135 46.6659 32.6264 47.2524C35.456 48.2199 38.0314 48.0829 40.0662 47.7576C42.3355 47.3937 47.0529 44.6796 48.0385 41.7087C49.0241 38.7335 49.0241 36.1863 48.726 35.6555Z" fill="#FBBC05"/>
</svg>
