<svg width="151" height="41" viewBox="0 0 151 41" fill="none" xmlns="http://www.w3.org/2000/svg">
<path d="M39.876 15.1302C39.1886 12.3713 37.885 10.2911 35.1083 10.2911H31.5281V14.5231C31.5281 17.8087 28.7425 20.5764 25.564 20.5764H16.0286C13.4215 20.5764 11.2609 22.8085 11.2609 25.4245V34.5134C11.2609 37.1026 13.5108 38.6205 16.0286 39.3615C19.0464 40.2454 21.948 40.4061 25.564 39.3615C27.9657 38.6651 30.3317 37.2634 30.3317 34.5134V30.8796H20.8052V29.6654H35.1083C37.885 29.6654 38.9118 27.728 39.876 24.8263C40.876 21.8353 40.8314 18.9604 39.876 15.1302ZM26.1622 33.2992C27.1532 33.2992 27.9568 34.1117 27.9568 35.1116C27.9568 36.1205 27.1532 36.933 26.1622 36.933C25.1801 36.933 24.3676 36.1116 24.3676 35.1116C24.3765 34.1027 25.1801 33.2992 26.1622 33.2992ZM15.5911 19.38H25.1265C27.7782 19.38 29.8942 17.1926 29.8942 14.532V5.43408C29.8942 2.84489 27.7157 0.907453 25.1265 0.469968C21.9302 -0.0567995 18.4571 -0.0300144 15.5911 0.478897C11.5555 1.19316 10.8234 2.68418 10.8234 5.44301V9.07682H20.3677V10.2911H7.24316C4.46646 10.2911 2.03797 11.9606 1.27906 15.1302C0.404091 18.764 0.368378 21.0318 1.27906 24.8263C1.95761 27.6476 3.57363 29.6654 6.35033 29.6654H9.62701V25.3084C9.62701 22.1567 12.3501 19.38 15.5911 19.38ZM14.9929 6.64833C14.0019 6.64833 13.1983 5.83586 13.1983 4.83589C13.2073 3.827 14.0019 3.01452 14.9929 3.01452C15.975 3.01452 16.7875 3.83592 16.7875 4.83589C16.7875 5.83586 15.984 6.64833 14.9929 6.64833Z" fill="#3B82F6"/>
<path d="M62.2569 19.9279C62.2569 20.6373 62.0859 21.3023 61.7439 21.9229C61.4146 22.5436 60.8889 23.0439 60.1669 23.4239C59.4576 23.8039 58.5582 23.9939 57.4689 23.9939H55.2459V29.0859H52.5859V15.8239H57.4689C58.4949 15.8239 59.3689 16.0013 60.0909 16.3559C60.8129 16.7106 61.3512 17.1983 61.7059 17.8189C62.0732 18.4396 62.2569 19.1426 62.2569 19.9279ZM57.3549 21.8469C58.0896 21.8469 58.6342 21.6823 58.9889 21.3529C59.3436 21.0109 59.5209 20.5359 59.5209 19.9279C59.5209 18.6359 58.7989 17.9899 57.3549 17.9899H55.2459V21.8469H57.3549ZM74.2155 18.5599L67.6985 34.0639H64.8675L67.1475 28.8199L62.9295 18.5599H65.9125L68.6295 25.9129L71.3845 18.5599H74.2155ZM78.7464 20.7449V25.8369C78.7464 26.1916 78.8287 26.4513 78.9934 26.6159C79.1707 26.7679 79.462 26.8439 79.8674 26.8439H81.1024V29.0859H79.4304C77.1884 29.0859 76.0674 27.9966 76.0674 25.8179V20.7449H74.8134V18.5599H76.0674V15.9569H78.7464V18.5599H81.1024V20.7449H78.7464ZM88.9436 18.4079C89.7416 18.4079 90.4509 18.5853 91.0716 18.9399C91.6923 19.2819 92.1736 19.7949 92.5156 20.4789C92.8703 21.1503 93.0476 21.9609 93.0476 22.9109V29.0859H90.3876V23.2719C90.3876 22.4359 90.1786 21.7963 89.7606 21.3529C89.3426 20.8969 88.7726 20.6689 88.0506 20.6689C87.3159 20.6689 86.7333 20.8969 86.3026 21.3529C85.8846 21.7963 85.6756 22.4359 85.6756 23.2719V29.0859H83.0156V15.0259H85.6756V19.8709C86.0176 19.4149 86.4736 19.0603 87.0436 18.8069C87.6136 18.5409 88.2469 18.4079 88.9436 18.4079ZM100.251 29.2569C99.2378 29.2569 98.3258 29.0353 97.5151 28.5919C96.7044 28.1359 96.0648 27.4963 95.5961 26.6729C95.1401 25.8496 94.9121 24.8996 94.9121 23.8229C94.9121 22.7463 95.1464 21.7963 95.6151 20.9729C96.0964 20.1496 96.7488 19.5163 97.5721 19.0729C98.3954 18.6169 99.3138 18.3889 100.327 18.3889C101.34 18.3889 102.259 18.6169 103.082 19.0729C103.905 19.5163 104.551 20.1496 105.02 20.9729C105.501 21.7963 105.742 22.7463 105.742 23.8229C105.742 24.8996 105.495 25.8496 105.001 26.6729C104.52 27.4963 103.861 28.1359 103.025 28.5919C102.202 29.0353 101.277 29.2569 100.251 29.2569ZM100.251 26.9389C100.732 26.9389 101.182 26.8249 101.6 26.5969C102.031 26.3563 102.373 26.0016 102.626 25.5329C102.879 25.0643 103.006 24.4943 103.006 23.8229C103.006 22.8223 102.74 22.0559 102.208 21.5239C101.689 20.9793 101.049 20.7069 100.289 20.7069C99.5291 20.7069 98.8894 20.9793 98.3701 21.5239C97.8634 22.0559 97.6101 22.8223 97.6101 23.8229C97.6101 24.8236 97.8571 25.5963 98.3511 26.1409C98.8578 26.6729 99.4911 26.9389 100.251 26.9389ZM113.526 18.4079C114.78 18.4079 115.794 18.8069 116.566 19.6049C117.339 20.3903 117.725 21.4923 117.725 22.9109V29.0859H115.065V23.2719C115.065 22.4359 114.856 21.7963 114.438 21.3529C114.02 20.8969 113.45 20.6689 112.728 20.6689C111.994 20.6689 111.411 20.8969 110.98 21.3529C110.562 21.7963 110.353 22.4359 110.353 23.2719V29.0859H107.693V18.5599H110.353V19.8709C110.708 19.4149 111.158 19.0603 111.702 18.8069C112.26 18.5409 112.868 18.4079 113.526 18.4079Z" fill="#111827"/>
</svg>
