<svg width="94" height="94" viewBox="0 0 94 94" fill="none" xmlns="http://www.w3.org/2000/svg">
<path d="M42 12.0825L48.6667 12.0825" stroke="#222222" stroke-width="3" stroke-linecap="round"/>
<path d="M42 25.4158L47 25.4158" stroke="#222222" stroke-width="3" stroke-linecap="round"/>
<path d="M42 18.749L52 18.749" stroke="#222222" stroke-width="3" stroke-linecap="round"/>
<path d="M58.6668 18.7491V11.4158C58.6668 8.58734 58.6668 7.17313 57.7882 6.29445C56.9095 5.41577 55.4953 5.41577 52.6668 5.41577H41.3335C38.5051 5.41577 37.0909 5.41577 36.2122 6.29445C35.3335 7.17313 35.3335 8.58735 35.3335 11.4158V29.4158C35.3335 32.2442 35.3335 33.6584 36.2122 34.5371C37.0909 35.4158 38.5051 35.4158 41.3335 35.4158H47.0002" stroke="#222222" stroke-width="3"/>
<circle cx="56.1667" cy="29.5824" r="4.16667" stroke="#222222" stroke-width="3"/>
<path d="M62 35.4158L59.5 32.9158" stroke="#222222" stroke-width="3" stroke-linecap="round"/>
<path d="M40.5352 60.5358C36.9552 60.5358 34.7752 58.4558 34.7752 54.4358V46.4158H36.2552V54.3758C36.2552 57.6958 37.8152 59.2158 40.5352 59.2158C43.2752 59.2158 44.8352 57.6958 44.8352 54.3758V46.4158H46.2752V54.4358C46.2752 58.4558 44.1152 60.5358 40.5352 60.5358ZM61.0398 60.4158H59.3198L54.7998 54.2558L50.2998 60.4158H48.5998L53.9198 53.2158L48.9398 46.4158H50.6398L54.8598 52.1358L59.0598 46.4158H60.6598L55.6998 53.1758L61.0398 60.4158ZM14.3077 91.4158H12.6877L9.48766 86.9158C9.12766 86.9558 8.76766 86.9758 8.36766 86.9758H4.60766V91.4158H3.12766V77.4158H8.36766C11.9277 77.4158 14.0877 79.2158 14.0877 82.2158C14.0877 84.4158 12.9277 85.9558 10.8877 86.6158L14.3077 91.4158ZM8.32766 85.7158C11.1277 85.7158 12.6077 84.4158 12.6077 82.2158C12.6077 79.9758 11.1277 78.6958 8.32766 78.6958H4.60766V85.7158H8.32766ZM26.4608 86.1558C26.4608 86.2758 26.4408 86.4358 26.4408 86.5958H17.6408C17.8008 88.7958 19.4808 90.2558 21.7808 90.2558C23.0608 90.2558 24.2008 89.7958 25.0008 88.8758L25.8008 89.7958C24.8608 90.9158 23.4008 91.5158 21.7408 91.5158C18.4608 91.5158 16.2208 89.2758 16.2208 86.1558C16.2208 83.0358 18.4008 80.8158 21.3608 80.8158C24.3208 80.8158 26.4608 82.9958 26.4608 86.1558ZM21.3608 82.0358C19.3208 82.0358 17.8208 83.4758 17.6408 85.5358H25.1008C24.9208 83.4758 23.4208 82.0358 21.3608 82.0358ZM32.1711 91.5158C30.4311 91.5158 28.7511 90.9558 27.8911 90.2158L28.5311 89.0958C29.3711 89.7558 30.7911 90.2758 32.2711 90.2758C34.2711 90.2758 35.0911 89.5958 35.0911 88.5558C35.0911 85.8158 28.2711 87.9758 28.2711 83.8158C28.2711 82.0958 29.7511 80.8158 32.4311 80.8158C33.7911 80.8158 35.2711 81.1958 36.1511 81.7958L35.5311 82.9358C34.6111 82.2958 33.5111 82.0358 32.4311 82.0358C30.5311 82.0358 29.6911 82.7758 29.6911 83.7758C29.6911 86.6158 36.5111 84.4758 36.5111 88.5158C36.5111 90.3358 34.9111 91.5158 32.1711 91.5158ZM48.3163 86.1558C48.3163 86.2758 48.2963 86.4358 48.2963 86.5958H39.4963C39.6562 88.7958 41.3363 90.2558 43.6363 90.2558C44.9163 90.2558 46.0563 89.7958 46.8563 88.8758L47.6563 89.7958C46.7163 90.9158 45.2563 91.5158 43.5963 91.5158C40.3163 91.5158 38.0763 89.2758 38.0763 86.1558C38.0763 83.0358 40.2563 80.8158 43.2163 80.8158C46.1763 80.8158 48.3163 82.9958 48.3163 86.1558ZM43.2163 82.0358C41.1763 82.0358 39.6763 83.4758 39.4963 85.5358H46.9563C46.7763 83.4758 45.2763 82.0358 43.2163 82.0358ZM54.5936 80.8158C57.3136 80.8158 58.8536 82.1758 58.8536 84.8958V91.4158H57.4936V89.7758C56.8536 90.8558 55.6136 91.5158 53.8736 91.5158C51.4936 91.5158 50.0336 90.2758 50.0336 88.4558C50.0336 86.8358 51.0736 85.4758 54.0936 85.4758H57.4336V84.8358C57.4336 83.0358 56.4136 82.0558 54.4536 82.0558C53.0936 82.0558 51.8136 82.5358 50.9536 83.2958L50.3136 82.2358C51.3736 81.3358 52.9336 80.8158 54.5936 80.8158ZM54.0936 90.3958C55.6936 90.3958 56.8736 89.6358 57.4336 88.2558V86.5358H54.1336C52.0936 86.5358 51.4336 87.3358 51.4336 88.4158C51.4336 89.6358 52.4136 90.3958 54.0936 90.3958ZM64.0705 82.9558C64.7305 81.5558 66.0705 80.8158 68.0105 80.8158V82.1958C67.8905 82.1958 67.7705 82.1758 67.6705 82.1758C65.4705 82.1758 64.1305 83.5758 64.1305 86.0558V91.4158H62.7105V80.8958H64.0705V82.9558ZM74.8439 91.5158C71.7039 91.5158 69.4239 89.2958 69.4239 86.1558C69.4239 83.0158 71.7039 80.8158 74.8439 80.8158C76.6239 80.8158 78.1239 81.5158 78.9639 82.8958L77.9039 83.6158C77.1839 82.5558 76.0639 82.0558 74.8439 82.0558C72.5439 82.0558 70.8639 83.6958 70.8639 86.1558C70.8639 88.6358 72.5439 90.2558 74.8439 90.2558C76.0639 90.2558 77.1839 89.7758 77.9039 88.7158L78.9639 89.4358C78.1239 90.7958 76.6239 91.5158 74.8439 91.5158ZM86.9572 80.8158C89.5172 80.8158 91.2772 82.2958 91.2772 85.3158V91.4158H89.8572V85.4558C89.8572 83.2358 88.6972 82.0958 86.6972 82.0958C84.4372 82.0958 83.0172 83.4958 83.0172 85.8958V91.4158H81.5972V76.5758H83.0172V82.7358C83.7972 81.5158 85.1772 80.8158 86.9572 80.8158Z" fill="#222222"/>
</svg>
