<svg width="115" height="96" viewBox="0 0 115 96" fill="none" xmlns="http://www.w3.org/2000/svg">
<path d="M57.5002 5.41577L58.4372 4.24447L57.5002 3.49483L56.5631 4.24447L57.5002 5.41577ZM56.0002 15.4158C56.0002 16.2442 56.6717 16.9158 57.5002 16.9158C58.3286 16.9158 59.0002 16.2442 59.0002 15.4158H56.0002ZM65.1039 9.5778L58.4372 4.24447L56.5631 6.58707L63.2298 11.9204L65.1039 9.5778ZM56.5631 4.24447L49.8965 9.5778L51.7705 11.9204L58.4372 6.58707L56.5631 4.24447ZM56.0002 5.41577V15.4158H59.0002V5.41577H56.0002Z" fill="#222222"/>
<path d="M72.5 20.4157L73.6713 21.3527L74.4209 20.4157L73.6713 19.4786L72.5 20.4157ZM62.5 18.9157C61.6716 18.9157 61 19.5873 61 20.4157C61 21.2441 61.6716 21.9157 62.5 21.9157L62.5 18.9157ZM68.338 28.0194L73.6713 21.3527L71.3287 19.4786L65.9954 26.1453L68.338 28.0194ZM73.6713 19.4786L68.338 12.812L65.9954 14.6861L71.3287 21.3527L73.6713 19.4786ZM72.5 18.9157L62.5 18.9157L62.5 21.9157L72.5 21.9157L72.5 18.9157Z" fill="#222222"/>
<path d="M57.5002 35.4158L58.4372 36.5871L57.5002 37.3367L56.5631 36.5871L57.5002 35.4158ZM56.0002 25.4158C56.0002 24.5873 56.6717 23.9158 57.5002 23.9158C58.3286 23.9158 59.0002 24.5873 59.0002 25.4158H56.0002ZM65.1039 31.2537L58.4372 36.5871L56.5631 34.2445L63.2298 28.9111L65.1039 31.2537ZM56.5631 36.5871L49.8965 31.2537L51.7705 28.9111L58.4372 34.2445L56.5631 36.5871ZM56.0002 35.4158V25.4158H59.0002V35.4158H56.0002Z" fill="#222222"/>
<path d="M42.5 20.4157L41.3287 21.3527L40.5791 20.4157L41.3287 19.4786L42.5 20.4157ZM52.5 18.9157C53.3284 18.9157 54 19.5873 54 20.4157C54 21.2441 53.3284 21.9157 52.5 21.9157L52.5 18.9157ZM46.662 28.0194L41.3287 21.3527L43.6713 19.4786L49.0046 26.1453L46.662 28.0194ZM41.3287 19.4786L46.662 12.812L49.0046 14.6861L43.6713 21.3527L41.3287 19.4786ZM42.5 18.9157L52.5 18.9157L52.5 21.9157L42.5 21.9157L42.5 18.9157Z" fill="#222222"/>
<path d="M14.1045 60.4158H12.4845L9.28453 55.9158C8.92453 55.9558 8.56453 55.9758 8.16453 55.9758H4.40453V60.4158H2.92453V46.4158H8.16453C11.7245 46.4158 13.8845 48.2158 13.8845 51.2158C13.8845 53.4158 12.7245 54.9558 10.6845 55.6158L14.1045 60.4158ZM8.12453 54.7158C10.9245 54.7158 12.4045 53.4158 12.4045 51.2158C12.4045 48.9758 10.9245 47.6958 8.12453 47.6958H4.40453V54.7158H8.12453ZM26.2577 55.1558C26.2577 55.2758 26.2377 55.4358 26.2377 55.5958H17.4377C17.5977 57.7958 19.2777 59.2558 21.5777 59.2558C22.8577 59.2558 23.9977 58.7958 24.7977 57.8758L25.5977 58.7958C24.6577 59.9158 23.1977 60.5158 21.5377 60.5158C18.2577 60.5158 16.0177 58.2758 16.0177 55.1558C16.0177 52.0358 18.1977 49.8158 21.1577 49.8158C24.1177 49.8158 26.2577 51.9958 26.2577 55.1558ZM21.1577 51.0358C19.1177 51.0358 17.6177 52.4758 17.4377 54.5358H24.8977C24.7177 52.4758 23.2177 51.0358 21.1577 51.0358ZM31.968 60.5158C30.228 60.5158 28.548 59.9558 27.688 59.2158L28.328 58.0958C29.168 58.7558 30.588 59.2758 32.068 59.2758C34.068 59.2758 34.888 58.5958 34.888 57.5558C34.888 54.8158 28.068 56.9758 28.068 52.8158C28.068 51.0958 29.548 49.8158 32.228 49.8158C33.588 49.8158 35.068 50.1958 35.948 50.7958L35.328 51.9358C34.408 51.2958 33.308 51.0358 32.228 51.0358C30.328 51.0358 29.488 51.7758 29.488 52.7758C29.488 55.6158 36.308 53.4758 36.308 57.5158C36.308 59.3358 34.708 60.5158 31.968 60.5158ZM44.3531 49.8158C47.3531 49.8158 49.5931 51.9758 49.5931 55.1558C49.5931 58.3558 47.3531 60.5158 44.3531 60.5158C42.6731 60.5158 41.2331 59.7958 40.3531 58.4358V64.2958H38.9331V49.8958H40.2931V51.9758C41.1531 50.5758 42.6131 49.8158 44.3531 49.8158ZM44.2531 59.2558C46.4731 59.2558 48.1731 57.6158 48.1731 55.1558C48.1731 52.7158 46.4731 51.0558 44.2531 51.0558C42.0131 51.0558 40.3331 52.7158 40.3331 55.1558C40.3331 57.6158 42.0131 59.2558 44.2531 59.2558ZM56.7878 60.5158C53.7078 60.5158 51.4278 58.2758 51.4278 55.1558C51.4278 52.0358 53.7078 49.8158 56.7878 49.8158C59.8678 49.8158 62.1278 52.0358 62.1278 55.1558C62.1278 58.2758 59.8678 60.5158 56.7878 60.5158ZM56.7878 59.2558C59.0278 59.2558 60.6878 57.6158 60.6878 55.1558C60.6878 52.6958 59.0278 51.0558 56.7878 51.0558C54.5478 51.0558 52.8678 52.6958 52.8678 55.1558C52.8678 57.6158 54.5478 59.2558 56.7878 59.2558ZM70.3869 49.8158C72.9469 49.8158 74.7069 51.2958 74.7069 54.3158V60.4158H73.2869V54.4558C73.2869 52.2358 72.1269 51.0958 70.1269 51.0958C67.8669 51.0958 66.4469 52.4958 66.4469 54.8958V60.4158H65.0269V49.8958H66.3869V51.8358C67.1469 50.5558 68.5669 49.8158 70.3869 49.8158ZM81.382 60.5158C79.642 60.5158 77.962 59.9558 77.102 59.2158L77.742 58.0958C78.582 58.7558 80.002 59.2758 81.482 59.2758C83.482 59.2758 84.302 58.5958 84.302 57.5558C84.302 54.8158 77.482 56.9758 77.482 52.8158C77.482 51.0958 78.962 49.8158 81.642 49.8158C83.002 49.8158 84.482 50.1958 85.362 50.7958L84.742 51.9358C83.822 51.2958 82.722 51.0358 81.642 51.0358C79.742 51.0358 78.902 51.7758 78.902 52.7758C78.902 55.6158 85.722 53.4758 85.722 57.5158C85.722 59.3358 84.122 60.5158 81.382 60.5158ZM89.0672 47.5958C88.4872 47.5958 88.0272 47.1358 88.0272 46.5758C88.0272 46.0358 88.4872 45.5758 89.0672 45.5758C89.6472 45.5758 90.1072 46.0158 90.1072 46.5558C90.1072 47.1358 89.6672 47.5958 89.0672 47.5958ZM88.3472 60.4158V49.8958H89.7672V60.4158H88.3472ZM101.158 49.8958H102.558L97.8783 60.4158H96.4183L91.7583 49.8958H93.2383L97.1783 58.8558L101.158 49.8958ZM113.445 55.1558C113.445 55.2758 113.425 55.4358 113.425 55.5958H104.625C104.785 57.7958 106.465 59.2558 108.765 59.2558C110.045 59.2558 111.185 58.7958 111.985 57.8758L112.785 58.7958C111.845 59.9158 110.385 60.5158 108.725 60.5158C105.445 60.5158 103.205 58.2758 103.205 55.1558C103.205 52.0358 105.385 49.8158 108.345 49.8158C111.305 49.8158 113.445 51.9958 113.445 55.1558ZM108.345 51.0358C106.305 51.0358 104.805 52.4758 104.625 54.5358H112.085C111.905 52.4758 110.405 51.0358 108.345 51.0358ZM24.282 91.4158V77.4158H29.982C34.462 77.4158 37.482 80.2958 37.482 84.4158C37.482 88.5358 34.462 91.4158 29.982 91.4158H24.282ZM25.762 90.1358H29.902C33.622 90.1358 36.022 87.7758 36.022 84.4158C36.022 81.0558 33.622 78.6958 29.902 78.6958H25.762V90.1358ZM49.6854 86.1558C49.6854 86.2758 49.6654 86.4358 49.6654 86.5958H40.8654C41.0254 88.7958 42.7054 90.2558 45.0054 90.2558C46.2854 90.2558 47.4254 89.7958 48.2254 88.8758L49.0254 89.7958C48.0854 90.9158 46.6254 91.5158 44.9654 91.5158C41.6854 91.5158 39.4454 89.2758 39.4454 86.1558C39.4454 83.0358 41.6254 80.8158 44.5854 80.8158C47.5454 80.8158 49.6854 82.9958 49.6854 86.1558ZM44.5854 82.0358C42.5454 82.0358 41.0454 83.4758 40.8654 85.5358H48.3254C48.1454 83.4758 46.6454 82.0358 44.5854 82.0358ZM55.3957 91.5158C53.6557 91.5158 51.9757 90.9558 51.1157 90.2158L51.7557 89.0958C52.5957 89.7558 54.0157 90.2758 55.4957 90.2758C57.4957 90.2758 58.3157 89.5958 58.3157 88.5558C58.3157 85.8158 51.4957 87.9758 51.4957 83.8158C51.4957 82.0958 52.9757 80.8158 55.6557 80.8158C57.0157 80.8158 58.4957 81.1958 59.3757 81.7958L58.7557 82.9358C57.8357 82.2958 56.7357 82.0358 55.6557 82.0358C53.7557 82.0358 52.9157 82.7758 52.9157 83.7758C52.9157 86.6158 59.7357 84.4758 59.7357 88.5158C59.7357 90.3358 58.1357 91.5158 55.3957 91.5158ZM63.0809 78.5958C62.5009 78.5958 62.0409 78.1358 62.0409 77.5758C62.0409 77.0358 62.5009 76.5758 63.0809 76.5758C63.6609 76.5758 64.1209 77.0158 64.1209 77.5558C64.1209 78.1358 63.6809 78.5958 63.0809 78.5958ZM62.3609 91.4158V80.8958H63.7809V91.4158H62.3609ZM76.112 80.8958H77.472V90.1358C77.472 93.7558 75.692 95.3958 72.212 95.3958C70.292 95.3958 68.412 94.8158 67.312 93.7758L68.032 92.6958C69.032 93.5958 70.552 94.1358 72.172 94.1358C74.832 94.1358 76.052 92.9158 76.052 90.3158V88.9758C75.172 90.3158 73.672 91.0158 71.952 91.0158C68.952 91.0158 66.672 88.9158 66.672 85.8958C66.672 82.8758 68.952 80.8158 71.952 80.8158C73.712 80.8158 75.232 81.5358 76.112 82.9158V80.8958ZM72.092 89.7558C74.412 89.7558 76.092 88.1758 76.092 85.8958C76.092 83.6158 74.412 82.0558 72.092 82.0558C69.772 82.0558 68.112 83.6158 68.112 85.8958C68.112 88.1758 69.772 89.7558 72.092 89.7558ZM86.8029 80.8158C89.3629 80.8158 91.1229 82.2958 91.1229 85.3158V91.4158H89.7029V85.4558C89.7029 83.2358 88.5429 82.0958 86.5429 82.0958C84.2829 82.0958 82.8629 83.4958 82.8629 85.8958V91.4158H81.4429V80.8958H82.8029V82.8358C83.5629 81.5558 84.9829 80.8158 86.8029 80.8158Z" fill="#222222"/>
</svg>
