<svg width="126" height="41" viewBox="0 0 126 41" fill="none" xmlns="http://www.w3.org/2000/svg">
<path d="M56.3696 23.4592V23.1935H54.1023V23.4925C54.2435 26.8643 56.5108 29.0984 60.5553 29.0984C64.4089 29.0984 67.0333 27.0969 67.0333 24.0655C67.0779 23.3752 66.9493 22.6847 66.6592 22.0566C66.3692 21.4286 65.9268 20.883 65.3723 20.4694C64.3197 19.7878 63.133 19.3403 61.8925 19.1572L61.5769 19.0825L61.2198 19.0077C58.2216 18.3765 57.2665 17.8284 57.2665 16.2006C57.2665 14.5728 58.6452 13.4433 60.954 13.4433C61.4369 13.4034 61.9227 13.4658 62.3798 13.6264C62.837 13.7869 63.2551 14.0421 63.607 14.3751C63.9588 14.7082 64.2365 15.1117 64.4219 15.5593C64.6073 16.007 64.6963 16.4886 64.683 16.973V17.2553H66.8921V16.9647C66.8091 13.5928 64.5501 11.3172 60.8959 11.3172C57.2416 11.3172 54.9328 13.4848 54.9328 16.3003C54.8826 16.983 55.009 17.6671 55.3 18.2868C55.5909 18.9064 56.0365 19.4407 56.5938 19.8382C57.6583 20.4803 58.8475 20.888 60.082 21.0342L60.3394 21.084L60.5969 21.1338C61.6228 21.2611 62.6198 21.5616 63.5452 22.0225C63.9318 22.2284 64.2505 22.5419 64.4627 22.9251C64.675 23.3083 64.7717 23.7448 64.7411 24.1818C64.7411 25.9674 63.2379 26.9806 60.5886 26.9806C57.9392 26.9806 56.544 25.7182 56.3696 23.4592ZM71.7506 11.0016V10.7109H69.5248V28.7579H71.7589V25.3694L74.1092 23.0772L78.3033 28.6499L78.3947 28.7662H81.1686L80.8115 28.3011L75.6955 21.5574L80.4211 16.8567L80.9194 16.3584H77.8797L77.7967 16.4414L71.7589 22.5208L71.7506 11.0016ZM92.613 23.2931H92.887V23.0191V22.7948V22.5789V22.3713C92.887 18.7253 90.4703 16.0345 86.8991 16.0345C83.3279 16.0345 80.7948 18.8998 80.7948 22.5125C80.7948 26.1252 83.2199 29.0153 86.924 29.0153C88.2058 29.054 89.4644 28.6677 90.5039 27.9166C91.5433 27.1656 92.3053 26.0919 92.6711 24.8628L92.7874 24.4891H90.5035L90.437 24.6801C90.176 25.3757 89.7026 25.9714 89.0839 26.3828C88.4653 26.7942 87.7328 27.0005 86.9904 26.9723C85.9957 26.9843 85.035 26.6102 84.3103 25.9288C83.5855 25.2474 83.153 24.3116 83.1036 23.3181L92.613 23.2931ZM83.1701 21.3996C83.2937 20.4891 83.7463 19.6553 84.4425 19.0556C85.1386 18.4558 86.0301 18.1316 86.9489 18.144C87.864 18.1126 88.7566 18.4322 89.4437 19.0375C90.1307 19.6427 90.5604 20.4878 90.6447 21.3996H83.1701ZM100.262 18.3267H100.553V16.3501H97.8286V12.9782H95.6277V16.3501H93.3355V18.3267H95.6277V25.2947C95.6277 27.5786 96.8153 28.816 98.9498 28.816C99.2801 28.8193 99.6103 28.7999 99.9381 28.7579L100.287 28.6914L100.503 28.6333V26.5653L100.154 26.6401H99.8384C99.635 26.6724 99.4297 26.6918 99.2238 26.6982H99.1657C98.2106 26.6982 97.8286 26.2497 97.8286 25.1286V18.3267H100.262ZM107.205 29.0486C108.582 29.0967 109.929 28.6445 110.998 27.7757C112.067 26.9069 112.784 25.6803 113.019 24.323L113.085 23.9742H110.834L110.776 24.1901C110.609 25.0043 110.156 25.7319 109.5 26.242C108.844 26.7521 108.027 27.0111 107.197 26.9723C104.904 26.9723 103.327 25.1618 103.327 22.5623C103.327 19.9628 104.904 18.1357 107.197 18.1357C108.027 18.0969 108.844 18.3559 109.5 18.866C110.156 19.376 110.609 20.1037 110.776 20.9179L110.834 21.1338H113.068L113.002 20.785C112.768 19.4276 112.05 18.201 110.981 17.3322C109.912 16.4634 108.565 16.0113 107.188 16.0594C103.601 16.0594 101.059 18.9413 101.059 22.5623C101.059 26.1833 103.617 29.0486 107.197 29.0486H107.205ZM117.171 11.0348V10.7442H114.937V28.7579H117.221V21.4826C117.178 21.0381 117.232 20.5895 117.379 20.1678C117.527 19.7462 117.763 19.3614 118.074 19.0401C118.384 18.7189 118.76 18.4687 119.176 18.3068C119.593 18.1449 120.039 18.0752 120.485 18.1025C122.362 18.1025 123.309 19.1904 123.309 21.2501V28.7579H125.526V20.9262C125.526 18.0111 123.724 16.076 120.751 16.076C120.101 16.0573 119.455 16.1681 118.849 16.402C118.243 16.6358 117.689 16.988 117.221 17.4381L117.171 11.0348Z" fill="#FDAD00"/>
<path d="M10.1186 1.41108L22.6752 0.0996094L35.2319 1.41108L44.9982 14.3584L22.6752 40.0856L0.352295 14.3584L10.1186 1.41108Z" fill="#FDB300"/>
<path d="M9.37913 14.3594L22.6334 40.0865L0.352295 14.3594H9.37913ZM35.8876 14.3594L22.6334 40.0865L44.9144 14.3594H35.8876Z" fill="#EA6C00"/>
<path d="M9.3783 14.3594H35.8868L22.6325 40.0865L9.3783 14.3594Z" fill="#FDAD00"/>
<path d="M22.6325 0.0859375L10.0759 1.41136L9.3783 14.3587L22.6325 0.0859375ZM22.6325 0.0859375L35.1892 1.41136L35.8868 14.3587L22.6325 0.0859375Z" fill="#FDD231"/>
<path d="M44.9144 14.3594L35.19 1.41211L35.8876 14.3594H44.9144ZM0.352295 14.3594L10.0767 1.41211L9.37913 14.3594H0.352295Z" fill="#FDAD00"/>
<path d="M22.6325 0.0859375L9.3783 14.3587H35.8868L22.6325 0.0859375Z" fill="#FEEEB7"/>
</svg>
