<svg width="85" height="96" viewBox="0 0 85 96" fill="none" xmlns="http://www.w3.org/2000/svg">
<path d="M37.5 10.4158C37.5 11.0724 37.6293 11.7226 37.8806 12.3292C38.1319 12.9358 38.5002 13.487 38.9645 13.9513C39.4288 14.4156 39.98 14.7839 40.5866 15.0352C41.1932 15.2864 41.8434 15.4158 42.5 15.4158C43.1566 15.4158 43.8068 15.2864 44.4134 15.0352C45.02 14.7839 45.5712 14.4156 46.0355 13.9513C46.4998 13.487 46.8681 12.9358 47.1194 12.3292C47.3707 11.7226 47.5 11.0724 47.5 10.4158C47.5 9.75916 47.3707 9.10898 47.1194 8.50235C46.8681 7.89572 46.4998 7.34453 46.0355 6.88024C45.5712 6.41594 45.02 6.04765 44.4134 5.79637C43.8068 5.5451 43.1566 5.41577 42.5 5.41577C41.8434 5.41577 41.1932 5.5451 40.5866 5.79637C39.98 6.04765 39.4288 6.41595 38.9645 6.88024C38.5002 7.34453 38.1319 7.89573 37.8806 8.50236C37.6293 9.10899 37.5 9.75917 37.5 10.4158L37.5 10.4158Z" stroke="#222222" stroke-width="3"/>
<path d="M29.8964 23.5849C29.3278 23.9132 28.8294 24.3503 28.4297 24.8712C28.03 25.3921 27.7367 25.9867 27.5668 26.6209C27.3969 27.2551 27.3535 27.9166 27.4392 28.5676C27.5249 29.2186 27.738 29.8464 28.0663 30.415C28.3946 30.9836 28.8317 31.482 29.3526 31.8818C29.8736 32.2815 30.4681 32.5747 31.1023 32.7446C31.7366 32.9146 32.3981 32.9579 33.0491 32.8722C33.7001 32.7865 34.3278 32.5734 34.8964 32.2451C35.4651 31.9168 35.9635 31.4797 36.3632 30.9588C36.7629 30.4379 37.0561 29.8433 37.2261 29.2091C37.396 28.5748 37.4394 27.9133 37.3537 27.2624C37.268 26.6114 37.0549 25.9836 36.7266 25.415C36.3983 24.8463 35.9612 24.3479 35.4402 23.9482C34.9193 23.5485 34.3248 23.2553 33.6905 23.0854C33.0563 22.9154 32.3948 22.8721 31.7438 22.9578C31.0928 23.0435 30.4651 23.2566 29.8964 23.5849L29.8964 23.5849Z" stroke="#222222" stroke-width="3"/>
<path d="M55.1036 23.5849C55.6722 23.9132 56.1706 24.3503 56.5703 24.8712C56.9701 25.3921 57.2633 25.9867 57.4332 26.6209C57.6031 27.2551 57.6465 27.9166 57.5608 28.5676C57.4751 29.2186 57.262 29.8464 56.9337 30.415C56.6054 30.9836 56.1683 31.482 55.6474 31.8818C55.1264 32.2815 54.5319 32.5747 53.8977 32.7446C53.2634 32.9146 52.6019 32.9579 51.9509 32.8722C51.2999 32.7865 50.6722 32.5734 50.1036 32.2451C49.5349 31.9168 49.0365 31.4797 48.6368 30.9588C48.2371 30.4379 47.9439 29.8433 47.7739 29.2091C47.604 28.5748 47.5606 27.9133 47.6463 27.2624C47.732 26.6114 47.9451 25.9836 48.2734 25.415C48.6017 24.8463 49.0388 24.3479 49.5598 23.9482C50.0807 23.5485 50.6752 23.2553 51.3095 23.0854C51.9437 22.9154 52.6052 22.8721 53.2562 22.9578C53.9072 23.0435 54.5349 23.2566 55.1036 23.5849L55.1036 23.5849Z" stroke="#222222" stroke-width="3"/>
<path fill-rule="evenodd" clip-rule="evenodd" d="M37.5146 10.8019C37.5047 10.6738 37.4997 10.5451 37.4997 10.4162C37.4997 9.7644 37.6271 9.11898 37.8748 8.5162C37.5851 8.61497 37.2982 8.72311 37.0147 8.84055C35.2757 9.56087 33.6956 10.6167 32.3646 11.9476C31.0337 13.2786 29.9779 14.8587 29.2576 16.5977C28.5372 18.3367 28.1665 20.2006 28.1665 22.0828C28.1665 23.0175 28.2579 23.9476 28.4382 24.8602C28.8364 24.3443 29.3316 23.9112 29.8961 23.5853C30.0077 23.5209 30.1217 23.4608 30.2376 23.4054C30.1903 22.9669 30.1665 22.5255 30.1665 22.0828C30.1665 20.4632 30.4855 18.8594 31.1053 17.3631C31.7251 15.8667 32.6336 14.5071 33.7788 13.3618C34.856 12.2847 36.1228 11.417 37.5146 10.8019ZM47.4848 10.8018C48.8767 11.4169 50.1436 12.2846 51.2208 13.3618C52.3661 14.5071 53.2745 15.8667 53.8943 17.3631C54.5142 18.8594 54.8332 20.4632 54.8332 22.0828C54.8332 22.5255 54.8093 22.967 54.762 23.4055C54.8779 23.4609 54.9918 23.5209 55.1034 23.5853C55.6679 23.9113 56.1632 24.3444 56.5615 24.8604C56.7417 23.9478 56.8332 23.0176 56.8332 22.0828C56.8332 20.2005 56.4624 18.3367 55.7421 16.5977C55.0218 14.8587 53.966 13.2786 52.635 11.9476C51.3041 10.6167 49.724 9.56087 47.985 8.84055C47.7014 8.72308 47.4144 8.6149 47.1246 8.51611C47.3723 9.11892 47.4997 9.76437 47.4997 10.4162C47.4997 10.5451 47.4947 10.6737 47.4848 10.8018ZM51.9371 32.8709C51.291 32.784 50.668 32.5716 50.1034 32.2456C49.9919 32.1812 49.8832 32.1127 49.7773 32.0402C48.9868 32.618 48.1284 33.1009 47.2196 33.4773C45.7233 34.0971 44.1195 34.4162 42.4998 34.4162C40.8802 34.4162 39.2764 34.0971 37.7801 33.4773C36.8712 33.1009 36.0128 32.6179 35.2222 32.0401C35.1164 32.1127 35.0076 32.1812 34.8961 32.2456C34.3315 32.5716 33.7086 32.784 33.0625 32.8708C34.2359 33.8973 35.5705 34.7269 37.0147 35.3251C38.7537 36.0454 40.6176 36.4162 42.4998 36.4162C44.3821 36.4162 46.246 36.0454 47.985 35.3251C49.4292 34.7269 50.7638 33.8973 51.9371 32.8709Z" fill="#222222"/>
<path d="M9.28195 60.4158V46.4158H14.982C19.462 46.4158 22.482 49.2958 22.482 53.4158C22.482 57.5358 19.462 60.4158 14.982 60.4158H9.28195ZM10.762 59.1358H14.902C18.622 59.1358 21.022 56.7758 21.022 53.4158C21.022 50.0558 18.622 47.6958 14.902 47.6958H10.762V59.1358ZM34.6854 55.1558C34.6854 55.2758 34.6654 55.4358 34.6654 55.5958H25.8654C26.0254 57.7958 27.7054 59.2558 30.0054 59.2558C31.2854 59.2558 32.4254 58.7958 33.2254 57.8758L34.0254 58.7958C33.0854 59.9158 31.6254 60.5158 29.9654 60.5158C26.6854 60.5158 24.4454 58.2758 24.4454 55.1558C24.4454 52.0358 26.6254 49.8158 29.5854 49.8158C32.5454 49.8158 34.6854 51.9958 34.6854 55.1558ZM29.5854 51.0358C27.5454 51.0358 26.0454 52.4758 25.8654 54.5358H33.3254C33.1454 52.4758 31.6454 51.0358 29.5854 51.0358ZM40.3957 60.5158C38.6557 60.5158 36.9757 59.9558 36.1157 59.2158L36.7557 58.0958C37.5957 58.7558 39.0157 59.2758 40.4957 59.2758C42.4957 59.2758 43.3157 58.5958 43.3157 57.5558C43.3157 54.8158 36.4957 56.9758 36.4957 52.8158C36.4957 51.0958 37.9757 49.8158 40.6557 49.8158C42.0157 49.8158 43.4957 50.1958 44.3757 50.7958L43.7557 51.9358C42.8357 51.2958 41.7357 51.0358 40.6557 51.0358C38.7557 51.0358 37.9157 51.7758 37.9157 52.7758C37.9157 55.6158 44.7357 53.4758 44.7357 57.5158C44.7357 59.3358 43.1357 60.5158 40.3957 60.5158ZM48.0809 47.5958C47.5009 47.5958 47.0409 47.1358 47.0409 46.5758C47.0409 46.0358 47.5009 45.5758 48.0809 45.5758C48.6609 45.5758 49.1209 46.0158 49.1209 46.5558C49.1209 47.1358 48.6809 47.5958 48.0809 47.5958ZM47.3609 60.4158V49.8958H48.7809V60.4158H47.3609ZM61.112 49.8958H62.472V59.1358C62.472 62.7558 60.692 64.3958 57.212 64.3958C55.292 64.3958 53.412 63.8158 52.312 62.7758L53.032 61.6958C54.032 62.5958 55.552 63.1358 57.172 63.1358C59.832 63.1358 61.052 61.9158 61.052 59.3158V57.9758C60.172 59.3158 58.672 60.0158 56.952 60.0158C53.952 60.0158 51.672 57.9158 51.672 54.8958C51.672 51.8758 53.952 49.8158 56.952 49.8158C58.712 49.8158 60.232 50.5358 61.112 51.9158V49.8958ZM57.092 58.7558C59.412 58.7558 61.092 57.1758 61.092 54.8958C61.092 52.6158 59.412 51.0558 57.092 51.0558C54.772 51.0558 53.112 52.6158 53.112 54.8958C53.112 57.1758 54.772 58.7558 57.092 58.7558ZM71.8029 49.8158C74.3629 49.8158 76.1229 51.2958 76.1229 54.3158V60.4158H74.7029V54.4558C74.7029 52.2358 73.5429 51.0958 71.5429 51.0958C69.2829 51.0958 67.8629 52.4958 67.8629 54.8958V60.4158H66.4429V49.8958H67.8029V51.8358C68.5629 50.5558 69.9829 49.8158 71.8029 49.8158ZM6.92125 91.5358C4.82125 91.5358 2.76125 90.7958 1.72125 89.7158L2.30125 88.5758C3.30125 89.5558 5.08125 90.2758 6.92125 90.2758C9.54125 90.2758 10.6813 89.1758 10.6813 87.7958C10.6813 83.9558 2.06125 86.3158 2.06125 81.1358C2.06125 79.0758 3.66125 77.2958 7.22125 77.2958C8.80125 77.2958 10.4413 77.7558 11.5613 78.5358L11.0612 79.7158C9.86125 78.9358 8.46125 78.5558 7.22125 78.5558C4.66125 78.5558 3.52125 79.6958 3.52125 81.0958C3.52125 84.9358 12.1413 82.6158 12.1413 87.7158C12.1413 89.7758 10.5013 91.5358 6.92125 91.5358ZM22.3106 80.8958H23.7106L18.4506 92.6758C17.5706 94.7358 16.4506 95.3958 14.9506 95.3958C13.9706 95.3958 13.0306 95.0758 12.3906 94.4358L13.0506 93.3758C13.5706 93.8958 14.2106 94.1758 14.9706 94.1758C15.9106 94.1758 16.5506 93.7358 17.1506 92.4158L17.6106 91.3958L12.9106 80.8958H14.3906L18.3506 89.8358L22.3106 80.8958ZM28.4133 91.5158C26.6733 91.5158 24.9933 90.9558 24.1333 90.2158L24.7733 89.0958C25.6133 89.7558 27.0333 90.2758 28.5133 90.2758C30.5133 90.2758 31.3333 89.5958 31.3333 88.5558C31.3333 85.8158 24.5133 87.9758 24.5133 83.8158C24.5133 82.0958 25.9933 80.8158 28.6733 80.8158C30.0333 80.8158 31.5133 81.1958 32.3933 81.7958L31.7733 82.9358C30.8533 82.2958 29.7533 82.0358 28.6733 82.0358C26.7733 82.0358 25.9333 82.7758 25.9333 83.7758C25.9333 86.6158 32.7533 84.4758 32.7533 88.5158C32.7533 90.3358 31.1533 91.5158 28.4133 91.5158ZM40.4184 89.7558L40.9184 90.7758C40.3584 91.2758 39.5184 91.5158 38.6984 91.5158C36.7184 91.5158 35.6184 90.3958 35.6184 88.4558V82.0958H33.7384V80.8958H35.6184V78.5958H37.0384V80.8958H40.2384V82.0958H37.0384V88.3758C37.0384 89.6158 37.6784 90.2958 38.8584 90.2958C39.4384 90.2958 40.0184 90.1158 40.4184 89.7558ZM52.3123 86.1558C52.3123 86.2758 52.2923 86.4358 52.2923 86.5958H43.4923C43.6523 88.7958 45.3323 90.2558 47.6323 90.2558C48.9123 90.2558 50.0523 89.7958 50.8523 88.8758L51.6523 89.7958C50.7123 90.9158 49.2523 91.5158 47.5923 91.5158C44.3123 91.5158 42.0723 89.2758 42.0723 86.1558C42.0723 83.0358 44.2523 80.8158 47.2123 80.8158C50.1723 80.8158 52.3123 82.9958 52.3123 86.1558ZM47.2123 82.0358C45.1723 82.0358 43.6723 83.4758 43.4923 85.5358H50.9523C50.7723 83.4758 49.2723 82.0358 47.2123 82.0358ZM68.3227 80.8158C70.8827 80.8158 72.5627 82.2958 72.5627 85.3158V91.4158H71.1427V85.4558C71.1427 83.2358 70.0227 82.0958 68.1227 82.0958C65.9627 82.0958 64.6027 83.4958 64.6027 85.8958V91.4158H63.1827V85.4558C63.1827 83.2358 62.0627 82.0958 60.1427 82.0958C58.0027 82.0958 56.6227 83.4958 56.6227 85.8958V91.4158H55.2027V80.8958H56.5627V82.8158C57.3027 81.5558 58.6627 80.8158 60.4227 80.8158C62.1627 80.8158 63.5227 81.5558 64.1627 83.0358C64.9227 81.6758 66.4227 80.8158 68.3227 80.8158ZM79.2336 91.5158C77.4936 91.5158 75.8136 90.9558 74.9536 90.2158L75.5936 89.0958C76.4336 89.7558 77.8536 90.2758 79.3336 90.2758C81.3336 90.2758 82.1536 89.5958 82.1536 88.5558C82.1536 85.8158 75.3336 87.9758 75.3336 83.8158C75.3336 82.0958 76.8136 80.8158 79.4936 80.8158C80.8536 80.8158 82.3336 81.1958 83.2136 81.7958L82.5936 82.9358C81.6736 82.2958 80.5736 82.0358 79.4936 82.0358C77.5936 82.0358 76.7536 82.7758 76.7536 83.7758C76.7536 86.6158 83.5736 84.4758 83.5736 88.5158C83.5736 90.3358 81.9736 91.5158 79.2336 91.5158Z" fill="#222222"/>
</svg>
