<svg width="63" height="96" viewBox="0 0 63 96" fill="none" xmlns="http://www.w3.org/2000/svg">
<circle cx="31.5002" cy="13.7492" r="5.16667" stroke="#222222" stroke-width="3" stroke-linecap="round"/>
<path d="M36.8024 13.6658C37.2665 12.8619 38.031 12.2753 38.9276 12.035C39.8243 11.7948 40.7796 11.9206 41.5835 12.3847C42.3874 12.8488 42.974 13.6133 43.2142 14.5099C43.4545 15.4065 43.3287 16.3619 42.8646 17.1658C42.4005 17.9697 41.636 18.5563 40.7394 18.7965C39.8427 19.0368 38.8874 18.911 38.0835 18.4469C37.2796 17.9827 36.693 17.2183 36.4528 16.3216C36.2125 15.425 36.3383 14.4697 36.8024 13.6658L36.8024 13.6658Z" stroke="#222222" stroke-width="3"/>
<path d="M20.1354 13.6658C20.5995 12.8619 21.364 12.2753 22.2606 12.035C23.1573 11.7948 24.1126 11.9206 24.9165 12.3847C25.7204 12.8488 26.307 13.6133 26.5472 14.5099C26.7875 15.4065 26.6617 16.3619 26.1976 17.1658C25.7335 17.9697 24.969 18.5563 24.0724 18.7965C23.1757 19.0368 22.2204 18.911 21.4165 18.4469C20.6126 17.9827 20.026 17.2183 19.7858 16.3216C19.5455 15.425 19.6713 14.4697 20.1354 13.6658L20.1354 13.6658Z" stroke="#222222" stroke-width="3"/>
<path d="M39.6361 30.4157L38.1656 30.7118L38.4081 31.9157H39.6361V30.4157ZM46.2615 29.3112L47.7069 28.9103V28.9103L46.2615 29.3112ZM36.1348 24.9332L35.2275 23.7387L33.4926 25.0564L35.3426 26.207L36.1348 24.9332ZM45.3673 28.9157H39.6361V31.9157H45.3673V28.9157ZM44.816 29.712C44.7592 29.5073 44.8153 29.2808 44.9443 29.1248C45.0642 28.9798 45.2263 28.9157 45.3673 28.9157V31.9157C46.8233 31.9157 48.1683 30.5737 47.7069 28.9103L44.816 29.712ZM39.8334 25.249C41.5059 25.249 42.5852 25.9324 43.3397 26.8024C44.1346 27.719 44.5825 28.8701 44.816 29.712L47.7069 28.9103C47.415 27.8576 46.8122 26.2276 45.6061 24.8369C44.3596 23.3995 42.4876 22.249 39.8334 22.249V25.249ZM37.0421 26.1277C37.7114 25.6194 38.5997 25.249 39.8334 25.249V22.249C37.9339 22.249 36.4103 22.8403 35.2275 23.7387L37.0421 26.1277ZM35.3426 26.207C37.1319 27.3199 37.8716 29.252 38.1656 30.7118L41.1066 30.1195C40.747 28.334 39.7503 25.4154 36.927 23.6595L35.3426 26.207Z" fill="#222222"/>
<path d="M26.8655 24.9332L27.6576 26.207L29.5076 25.0564L27.7727 23.7387L26.8655 24.9332ZM16.7387 29.3112L15.2933 28.9103L16.7387 29.3112ZM23.3641 30.4157V31.9157H24.5921L24.8346 30.7118L23.3641 30.4157ZM23.1668 25.249C24.4005 25.249 25.2889 25.6194 25.9582 26.1277L27.7727 23.7387C26.5899 22.8403 25.0663 22.249 23.1668 22.249V25.249ZM18.1842 29.7121C18.4177 28.8701 18.8656 27.719 19.6606 26.8024C20.4151 25.9324 21.4944 25.249 23.1668 25.249V22.249C20.5126 22.249 18.6407 23.3995 17.3941 24.8369C16.1881 26.2276 15.5853 27.8576 15.2933 28.9103L18.1842 29.7121ZM17.6329 28.9157C17.7739 28.9157 17.936 28.9798 18.0559 29.1248C18.185 29.2808 18.241 29.5073 18.1842 29.7121L15.2933 28.9103C14.8319 30.5737 16.1769 31.9157 17.6329 31.9157V28.9157ZM23.3641 28.9157H17.6329V31.9157H23.3641V28.9157ZM24.8346 30.7118C25.1286 29.252 25.8683 27.3198 27.6576 26.207L26.0733 23.6595C23.2499 25.4154 22.2532 28.3339 21.8936 30.1195L24.8346 30.7118Z" fill="#222222"/>
<path d="M31.4998 23.749C38.037 23.749 39.446 28.8771 39.7497 31.0878C39.8249 31.6349 39.3855 32.0824 38.8332 32.0824H24.1665C23.6142 32.0824 23.1748 31.6349 23.25 31.0878C23.5537 28.8771 24.9627 23.749 31.4998 23.749Z" stroke="#222222" stroke-width="3" stroke-linecap="round"/>
<path d="M8.91211 60.4158V47.6958H3.99211V46.4158H15.3121V47.6958H10.3921V60.4158H8.91211ZM25.4627 55.1558C25.4627 55.2758 25.4427 55.4358 25.4427 55.5958H16.6427C16.8027 57.7958 18.4827 59.2558 20.7827 59.2558C22.0627 59.2558 23.2027 58.7958 24.0027 57.8758L24.8027 58.7958C23.8627 59.9158 22.4027 60.5158 20.7427 60.5158C17.4627 60.5158 15.2227 58.2758 15.2227 55.1558C15.2227 52.0358 17.4027 49.8158 20.3627 49.8158C23.3227 49.8158 25.4627 51.9958 25.4627 55.1558ZM20.3627 51.0358C18.3227 51.0358 16.8227 52.4758 16.6427 54.5358H24.1027C23.9227 52.4758 22.4227 51.0358 20.3627 51.0358ZM31.7401 49.8158C34.4601 49.8158 36.0001 51.1758 36.0001 53.8958V60.4158H34.6401V58.7758C34.0001 59.8558 32.7601 60.5158 31.0201 60.5158C28.6401 60.5158 27.1801 59.2758 27.1801 57.4558C27.1801 55.8358 28.2201 54.4758 31.2401 54.4758H34.5801V53.8358C34.5801 52.0358 33.5601 51.0558 31.6001 51.0558C30.2401 51.0558 28.9601 51.5358 28.1001 52.2958L27.4601 51.2358C28.5201 50.3358 30.0801 49.8158 31.7401 49.8158ZM31.2401 59.3958C32.8401 59.3958 34.0201 58.6358 34.5801 57.2558V55.5358H31.2801C29.2401 55.5358 28.5801 56.3358 28.5801 57.4158C28.5801 58.6358 29.5601 59.3958 31.2401 59.3958ZM52.977 49.8158C55.537 49.8158 57.217 51.2958 57.217 54.3158V60.4158H55.797V54.4558C55.797 52.2358 54.677 51.0958 52.777 51.0958C50.617 51.0958 49.257 52.4958 49.257 54.8958V60.4158H47.837V54.4558C47.837 52.2358 46.717 51.0958 44.797 51.0958C42.657 51.0958 41.277 52.4958 41.277 54.8958V60.4158H39.857V49.8958H41.217V51.8158C41.957 50.5558 43.317 49.8158 45.077 49.8158C46.817 49.8158 48.177 50.5558 48.817 52.0358C49.577 50.6758 51.077 49.8158 52.977 49.8158ZM8.03367 77.4158C11.5937 77.4158 13.7537 79.2158 13.7537 82.2158C13.7537 85.1958 11.5937 86.9958 8.03367 86.9958H4.27367V91.4158H2.79367V77.4158H8.03367ZM7.99367 85.6958C10.7937 85.6958 12.2737 84.4158 12.2737 82.2158C12.2737 79.9758 10.7937 78.6958 7.99367 78.6958H4.27367V85.6958H7.99367ZM16.8491 91.4158V76.5758H18.2691V91.4158H16.8491ZM25.9002 80.8158C28.6202 80.8158 30.1602 82.1758 30.1602 84.8958V91.4158H28.8002V89.7758C28.1602 90.8558 26.9202 91.5158 25.1802 91.5158C22.8002 91.5158 21.3402 90.2758 21.3402 88.4558C21.3402 86.8358 22.3802 85.4758 25.4002 85.4758H28.7402V84.8358C28.7402 83.0358 27.7202 82.0558 25.7602 82.0558C24.4002 82.0558 23.1202 82.5358 22.2602 83.2958L21.6202 82.2358C22.6802 81.3358 24.2402 80.8158 25.9002 80.8158ZM25.4002 90.3958C27.0002 90.3958 28.1802 89.6358 28.7402 88.2558V86.5358H25.4402C23.4002 86.5358 22.7402 87.3358 22.7402 88.4158C22.7402 89.6358 23.7202 90.3958 25.4002 90.3958ZM41.2618 80.8958H42.6618L37.4018 92.6758C36.5218 94.7358 35.4018 95.3958 33.9018 95.3958C32.9218 95.3958 31.9818 95.0758 31.3418 94.4358L32.0018 93.3758C32.5218 93.8958 33.1618 94.1758 33.9218 94.1758C34.8618 94.1758 35.5018 93.7358 36.1018 92.4158L36.5618 91.3958L31.8618 80.8958H33.3418L37.3018 89.8358L41.2618 80.8958ZM53.5487 86.1558C53.5487 86.2758 53.5287 86.4358 53.5287 86.5958H44.7287C44.8887 88.7958 46.5687 90.2558 48.8687 90.2558C50.1487 90.2558 51.2887 89.7958 52.0887 88.8758L52.8887 89.7958C51.9487 90.9158 50.4887 91.5158 48.8287 91.5158C45.5487 91.5158 43.3087 89.2758 43.3087 86.1558C43.3087 83.0358 45.4887 80.8158 48.4487 80.8158C51.4087 80.8158 53.5487 82.9958 53.5487 86.1558ZM48.4487 82.0358C46.4087 82.0358 44.9087 83.4758 44.7287 85.5358H52.1887C52.0087 83.4758 50.5087 82.0358 48.4487 82.0358ZM57.799 82.9558C58.459 81.5558 59.799 80.8158 61.739 80.8158V82.1958C61.619 82.1958 61.499 82.1758 61.399 82.1758C59.199 82.1758 57.859 83.5758 57.859 86.0558V91.4158H56.439V80.8958H57.799V82.9558Z" fill="#222222"/>
</svg>
