<svg width="72" height="96" viewBox="0 0 72 96" fill="none" xmlns="http://www.w3.org/2000/svg">
<path d="M41.2427 9.34253C41.7907 9.40152 42.2151 9.65254 42.5229 9.88745C42.8401 10.1295 43.1718 10.466 43.4751 10.7693L45.647 12.9412C45.9502 13.2444 46.2868 13.5762 46.5288 13.8933C46.7973 14.2452 47.0864 14.7489 47.0864 15.4158C47.0864 16.0827 46.7973 16.5864 46.5288 16.9382C46.2868 17.2554 45.9502 17.5871 45.647 17.8904L32.4526 31.0847C32.3143 31.2231 32.0566 31.4978 31.7202 31.6882C31.3839 31.8786 31.0164 31.9582 30.8267 32.0056L25.5054 33.3357C25.3737 33.3686 25.1094 33.4392 24.8696 33.4626C24.611 33.4879 23.9681 33.5043 23.4399 32.9763C22.9118 32.4482 22.9283 31.8053 22.9536 31.5466C22.9771 31.3065 23.0477 31.0415 23.0806 30.9099L24.4106 25.5896C24.4581 25.3998 24.5375 25.0315 24.728 24.6951L24.8022 24.573C24.9844 24.2964 25.2105 24.0847 25.3315 23.9636L38.5249 10.7693C38.8283 10.4659 39.1608 10.1295 39.478 9.88745C39.8299 9.61901 40.3336 9.32983 41.0005 9.32983L41.2427 9.34253Z" stroke="#222222" stroke-width="3"/>
<path d="M36.8335 12.9159L41.8335 9.58252L46.8335 14.5825L43.5002 19.5825L36.8335 12.9159Z" fill="#222222"/>
<path d="M32.9825 60.5358C29.4025 60.5358 27.2225 58.4558 27.2225 54.4358V46.4158H28.7025V54.3758C28.7025 57.6958 30.2625 59.2158 32.9825 59.2158C35.7225 59.2158 37.2825 57.6958 37.2825 54.3758V46.4158H38.7225V54.4358C38.7225 58.4558 36.5625 60.5358 32.9825 60.5358ZM43.1823 60.4158V46.4158H44.6623V60.4158H43.1823ZM2.78195 91.4158V77.4158H8.48195C12.962 77.4158 15.982 80.2958 15.982 84.4158C15.982 88.5358 12.962 91.4158 8.48195 91.4158H2.78195ZM4.26195 90.1358H8.40195C12.122 90.1358 14.522 87.7758 14.522 84.4158C14.522 81.0558 12.122 78.6958 8.40195 78.6958H4.26195V90.1358ZM28.1854 86.1558C28.1854 86.2758 28.1654 86.4358 28.1654 86.5958H19.3654C19.5254 88.7958 21.2054 90.2558 23.5054 90.2558C24.7854 90.2558 25.9254 89.7958 26.7254 88.8758L27.5254 89.7958C26.5854 90.9158 25.1254 91.5158 23.4654 91.5158C20.1854 91.5158 17.9454 89.2758 17.9454 86.1558C17.9454 83.0358 20.1254 80.8158 23.0854 80.8158C26.0454 80.8158 28.1854 82.9958 28.1854 86.1558ZM23.0854 82.0358C21.0454 82.0358 19.5454 83.4758 19.3654 85.5358H26.8254C26.6454 83.4758 25.1454 82.0358 23.0854 82.0358ZM33.8957 91.5158C32.1557 91.5158 30.4757 90.9558 29.6157 90.2158L30.2557 89.0958C31.0957 89.7558 32.5157 90.2758 33.9957 90.2758C35.9957 90.2758 36.8157 89.5958 36.8157 88.5558C36.8157 85.8158 29.9957 87.9758 29.9957 83.8158C29.9957 82.0958 31.4757 80.8158 34.1557 80.8158C35.5157 80.8158 36.9957 81.1958 37.8757 81.7958L37.2557 82.9358C36.3357 82.2958 35.2357 82.0358 34.1557 82.0358C32.2557 82.0358 31.4157 82.7758 31.4157 83.7758C31.4157 86.6158 38.2357 84.4758 38.2357 88.5158C38.2357 90.3358 36.6357 91.5158 33.8957 91.5158ZM41.5809 78.5958C41.0009 78.5958 40.5409 78.1358 40.5409 77.5758C40.5409 77.0358 41.0009 76.5758 41.5809 76.5758C42.1609 76.5758 42.6209 77.0158 42.6209 77.5558C42.6209 78.1358 42.1809 78.5958 41.5809 78.5958ZM40.8609 91.4158V80.8958H42.2809V91.4158H40.8609ZM54.612 80.8958H55.972V90.1358C55.972 93.7558 54.192 95.3958 50.712 95.3958C48.792 95.3958 46.912 94.8158 45.812 93.7758L46.532 92.6958C47.532 93.5958 49.052 94.1358 50.672 94.1358C53.332 94.1358 54.552 92.9158 54.552 90.3158V88.9758C53.672 90.3158 52.172 91.0158 50.452 91.0158C47.452 91.0158 45.172 88.9158 45.172 85.8958C45.172 82.8758 47.452 80.8158 50.452 80.8158C52.212 80.8158 53.732 81.5358 54.612 82.9158V80.8958ZM50.592 89.7558C52.912 89.7558 54.592 88.1758 54.592 85.8958C54.592 83.6158 52.912 82.0558 50.592 82.0558C48.272 82.0558 46.612 83.6158 46.612 85.8958C46.612 88.1758 48.272 89.7558 50.592 89.7558ZM65.3029 80.8158C67.8629 80.8158 69.6229 82.2958 69.6229 85.3158V91.4158H68.2029V85.4558C68.2029 83.2358 67.0429 82.0958 65.0429 82.0958C62.7829 82.0958 61.3629 83.4958 61.3629 85.8958V91.4158H59.9429V80.8958H61.3029V82.8358C62.0629 81.5558 63.4829 80.8158 65.3029 80.8158Z" fill="#222222"/>
</svg>
