<svg width="72" height="96" viewBox="0 0 72 96" fill="none" xmlns="http://www.w3.org/2000/svg">
<path d="M27.667 8.58252H44.333C45.9467 8.58252 47.0065 8.58545 47.791 8.69092C48.5324 8.79059 48.7999 8.95663 48.9629 9.11963C49.1259 9.28263 49.2919 9.55013 49.3916 10.2915C49.4971 11.076 49.5 12.1358 49.5 13.7495V27.2495H22.5V13.7495C22.5 12.1358 22.5029 11.076 22.6084 10.2915C22.7081 9.55012 22.8741 9.28263 23.0371 9.11963C23.2001 8.95663 23.4676 8.79059 24.209 8.69092C24.9935 8.58545 26.0533 8.58252 27.667 8.58252Z" stroke="#222222" stroke-width="3"/>
<path d="M49.8887 27.249C51.3307 27.249 52.5 28.4183 52.5 29.8604C52.4999 31.916 50.833 33.582 48.7773 33.582H23.2227C21.167 33.582 19.5001 31.916 19.5 29.8604C19.5 28.4183 20.6693 27.249 22.1113 27.249H49.8887Z" stroke="#222222" stroke-width="3"/>
<path d="M32.7011 46.4158H34.1211L29.4011 60.4158H27.8411L23.7411 48.4758L19.6211 60.4158H18.0811L13.3611 46.4158H14.8811L18.9211 58.4558L23.1011 46.4158H24.4811L28.6011 58.5158L32.7011 46.4158ZM44.9139 55.1558C44.9139 55.2758 44.8939 55.4358 44.8939 55.5958H36.0939C36.2539 57.7958 37.9339 59.2558 40.2339 59.2558C41.5139 59.2558 42.6539 58.7958 43.4539 57.8758L44.2539 58.7958C43.3139 59.9158 41.8539 60.5158 40.1939 60.5158C36.9139 60.5158 34.6739 58.2758 34.6739 55.1558C34.6739 52.0358 36.8539 49.8158 39.8139 49.8158C42.7739 49.8158 44.9139 51.9958 44.9139 55.1558ZM39.8139 51.0358C37.7739 51.0358 36.2739 52.4758 36.0939 54.5358H43.5539C43.3739 52.4758 41.8739 51.0358 39.8139 51.0358ZM53.2242 49.8158C56.2242 49.8158 58.4642 51.9758 58.4642 55.1558C58.4642 58.3358 56.2242 60.5158 53.2242 60.5158C51.4842 60.5158 50.0242 59.7558 49.1642 58.3358V60.4158H47.8042V45.5758H49.2242V51.8958C50.1042 50.5358 51.5442 49.8158 53.2242 49.8158ZM53.1242 59.2558C55.3442 59.2558 57.0442 57.6158 57.0442 55.1558C57.0442 52.6958 55.3442 51.0558 53.1242 51.0558C50.8842 51.0558 49.2042 52.6958 49.2042 55.1558C49.2042 57.6158 50.8842 59.2558 53.1242 59.2558ZM2.78195 91.4158V77.4158H8.48195C12.962 77.4158 15.982 80.2958 15.982 84.4158C15.982 88.5358 12.962 91.4158 8.48195 91.4158H2.78195ZM4.26195 90.1358H8.40195C12.122 90.1358 14.522 87.7758 14.522 84.4158C14.522 81.0558 12.122 78.6958 8.40195 78.6958H4.26195V90.1358ZM28.1854 86.1558C28.1854 86.2758 28.1654 86.4358 28.1654 86.5958H19.3654C19.5254 88.7958 21.2054 90.2558 23.5054 90.2558C24.7854 90.2558 25.9254 89.7958 26.7254 88.8758L27.5254 89.7958C26.5854 90.9158 25.1254 91.5158 23.4654 91.5158C20.1854 91.5158 17.9454 89.2758 17.9454 86.1558C17.9454 83.0358 20.1254 80.8158 23.0854 80.8158C26.0454 80.8158 28.1854 82.9958 28.1854 86.1558ZM23.0854 82.0358C21.0454 82.0358 19.5454 83.4758 19.3654 85.5358H26.8254C26.6454 83.4758 25.1454 82.0358 23.0854 82.0358ZM33.8957 91.5158C32.1557 91.5158 30.4757 90.9558 29.6157 90.2158L30.2557 89.0958C31.0957 89.7558 32.5157 90.2758 33.9957 90.2758C35.9957 90.2758 36.8157 89.5958 36.8157 88.5558C36.8157 85.8158 29.9957 87.9758 29.9957 83.8158C29.9957 82.0958 31.4757 80.8158 34.1557 80.8158C35.5157 80.8158 36.9957 81.1958 37.8757 81.7958L37.2557 82.9358C36.3357 82.2958 35.2357 82.0358 34.1557 82.0358C32.2557 82.0358 31.4157 82.7758 31.4157 83.7758C31.4157 86.6158 38.2357 84.4758 38.2357 88.5158C38.2357 90.3358 36.6357 91.5158 33.8957 91.5158ZM41.5809 78.5958C41.0009 78.5958 40.5409 78.1358 40.5409 77.5758C40.5409 77.0358 41.0009 76.5758 41.5809 76.5758C42.1609 76.5758 42.6209 77.0158 42.6209 77.5558C42.6209 78.1358 42.1809 78.5958 41.5809 78.5958ZM40.8609 91.4158V80.8958H42.2809V91.4158H40.8609ZM54.612 80.8958H55.972V90.1358C55.972 93.7558 54.192 95.3958 50.712 95.3958C48.792 95.3958 46.912 94.8158 45.812 93.7758L46.532 92.6958C47.532 93.5958 49.052 94.1358 50.672 94.1358C53.332 94.1358 54.552 92.9158 54.552 90.3158V88.9758C53.672 90.3158 52.172 91.0158 50.452 91.0158C47.452 91.0158 45.172 88.9158 45.172 85.8958C45.172 82.8758 47.452 80.8158 50.452 80.8158C52.212 80.8158 53.732 81.5358 54.612 82.9158V80.8958ZM50.592 89.7558C52.912 89.7558 54.592 88.1758 54.592 85.8958C54.592 83.6158 52.912 82.0558 50.592 82.0558C48.272 82.0558 46.612 83.6158 46.612 85.8958C46.612 88.1758 48.272 89.7558 50.592 89.7558ZM65.3029 80.8158C67.8629 80.8158 69.6229 82.2958 69.6229 85.3158V91.4158H68.2029V85.4558C68.2029 83.2358 67.0429 82.0958 65.0429 82.0958C62.7829 82.0958 61.3629 83.4958 61.3629 85.8958V91.4158H59.9429V80.8958H61.3029V82.8358C62.0629 81.5558 63.4829 80.8158 65.3029 80.8158Z" fill="#222222"/>
</svg>
